<svg aria-hidden="true" style="position: absolute; width: 0; height: 0; overflow: hidden;" version="1.1" xmlns="http://www.w3.org/2000/svg" xmlns:xlink="http://www.w3.org/1999/xlink">
<defs>
<symbol id="bg" viewBox="6 5 22 21">
<path d="M14.796 6.295c0.534-0.541 1.79-0.541 2.324 0 0.448 0.453 1.441 0.542 2.074 0.187 0.756-0.424 1.96-0.203 2.23 0.41 0.226 0.514 1.138 0.775 1.906 0.545 0.916-0.274 1.972 0.151 1.955 0.787-0.014 0.533 0.744 0.944 1.584 0.86 1.002-0.101 1.824 0.494 1.522 1.101-0.253 0.509 0.289 1.037 1.133 1.104 1.007 0.080 1.528 0.796 0.966 1.325-0.472 0.443-0.189 1.046 0.59 1.26 0.93 0.255 1.108 1.033 0.331 1.441-0.652 0.342-0.652 0.971 0 1.313 0.778 0.408 0.599 1.187-0.331 1.441-0.78 0.213-1.062 0.816-0.59 1.26 0.563 0.529 0.041 1.245-0.966 1.325-0.844 0.067-1.386 0.596-1.133 1.104 0.302 0.607-0.52 1.201-1.522 1.101-0.84-0.085-1.598 0.327-1.584 0.86 0.017 0.636-1.039 1.061-1.955 0.787-0.768-0.229-1.68 0.032-1.906 0.546-0.27 0.613-1.474 0.835-2.23 0.41-0.634-0.356-1.626-0.266-2.074 0.187-0.535 0.54-1.79 0.54-2.324 0-0.448-0.453-1.441-0.543-2.074-0.187-0.756 0.425-1.961 0.203-2.23-0.41-0.226-0.514-1.138-0.775-1.906-0.546-0.916 0.273-1.972-0.151-1.955-0.787 0.014-0.533-0.744-0.945-1.584-0.86-1.002 0.101-1.824-0.493-1.522-1.101 0.253-0.509-0.289-1.037-1.133-1.104-1.007-0.080-1.528-0.796-0.966-1.325 0.471-0.444 0.189-1.046-0.591-1.26-0.93-0.255-1.109-1.033-0.331-1.441 0.652-0.342 0.652-0.971 0-1.313-0.778-0.409-0.599-1.187 0.331-1.441 0.78-0.213 1.062-0.816 0.591-1.26-0.563-0.529-0.041-1.244 0.966-1.325 0.844-0.067 1.386-0.596 1.133-1.104-0.302-0.607 0.52-1.201 1.522-1.101 0.84 0.085 1.598-0.327 1.584-0.86-0.017-0.636 1.039-1.061 1.955-0.787 0.768 0.229 1.68-0.032 1.906-0.545 0.27-0.613 1.474-0.835 2.23-0.41 0.634 0.356 1.626 0.266 2.074-0.187z"></path>
</symbol>
 <symbol id="clock" viewBox="0 0 122.88 108.67">
    <path d="M14.52,55.12a54.53,54.53,0,0,1,8.12-29.54A52.65,52.65,0,0,1,46.75,4.79a60.05,60.05,0,0,1,11.1-3.55,52.77,52.77,0,0,1,60.35,31.2,59.34,59.34,0,0,1,3.5,11.07,52.58,52.58,0,0,1-1.31,27,53.18,53.18,0,0,1-14.66,22.87A57.62,57.62,0,0,1,83,106.64a48.71,48.71,0,0,1-25,.74,47.51,47.51,0,0,1-7.89-2.58,49.43,49.43,0,0,1-7.56-4,3.82,3.82,0,0,1,4.16-6.41,40.79,40.79,0,0,0,6.4,3.42,40,40,0,0,0,6.62,2.16,41.07,41.07,0,0,0,21.12-.63,49.92,49.92,0,0,0,19.73-11.48,45.64,45.64,0,0,0,12.56-19.61,44.86,44.86,0,0,0,1.1-23.11,52.48,52.48,0,0,0-3-9.67A45.1,45.1,0,0,0,59.43,8.73a52.47,52.47,0,0,0-9.68,3.09A45,45,0,0,0,29.14,29.59a47,47,0,0,0-7,26l8.75-9.72A3.83,3.83,0,1,1,36.61,51L21.89,67.37a3.83,3.83,0,0,1-5.4.28L1.17,52.86a3.82,3.82,0,0,1,5.3-5.51l8.05,7.77ZM62.71,32.89a3.83,3.83,0,1,1,7.66,0v21.9l17.27,9.59a3.82,3.82,0,0,1-3.71,6.67L65,60.52A3.83,3.83,0,0,1,62.71,57V32.89Z"></path>
  </symbol>
<symbol id="date" viewBox="0 0 32 32">
<path d="M21.25 1.232c0-0.68 0.672-1.232 1.503-1.232s1.503 0.552 1.503 1.232v5.396c0 0.68-0.672 1.232-1.503 1.232s-1.503-0.552-1.503-1.232v-5.396zM10.5 26.93v-8.875h-1.854v-1.951l2.201-0.943h2.695v11.768zM15.276 26.93v-2.419l3.63-3.708c0.203-0.199 0.393-0.409 0.57-0.629l0.011-0.014c0.139-0.169 0.262-0.359 0.362-0.563l0.008-0.017c0.081-0.166 0.13-0.361 0.133-0.567v-0.001c0.001-0.013 0.001-0.027 0.001-0.042 0-0.184-0.047-0.357-0.129-0.508l0.003 0.006c-0.088-0.143-0.222-0.25-0.38-0.303l-0.005-0.001c-0.181-0.060-0.39-0.095-0.607-0.095-0.021 0-0.042 0-0.063 0.001l0.003-0h-3.349v-2.443q0.781-0.172 1.721-0.32c0.628-0.096 1.351-0.152 2.088-0.152 0.042 0 0.084 0 0.127 0.001l-0.006-0c0.066-0.003 0.144-0.005 0.222-0.005 0.705 0 1.377 0.14 1.989 0.395l-0.034-0.013c0.504 0.233 0.899 0.63 1.124 1.121l0.006 0.014c0.215 0.497 0.34 1.077 0.34 1.685 0 0.042-0.001 0.084-0.002 0.126l0-0.006c0 0.015 0 0.032 0 0.049 0 0.482-0.075 0.946-0.215 1.381l0.009-0.032c-0.147 0.45-0.347 0.841-0.598 1.193l0.009-0.014c-0.291 0.403-0.598 0.758-0.933 1.084l-0.002 0.002-2.010 2.060h4.052v2.732zM7.724 1.232c-0.013-0.68 0.659-1.232 1.49-1.232s1.503 0.552 1.503 1.232v5.396c0 0.68-0.672 1.232-1.503 1.232s-1.503-0.552-1.503-1.232v-5.396zM1.667 10.094h28.661v-4.503c-0.002-0.21-0.087-0.4-0.224-0.539l0 0c-0.138-0.138-0.328-0.224-0.539-0.224-0 0-0 0-0 0h-2.742c-0.46 0-0.833-0.373-0.833-0.833s0.373-0.833 0.833-0.833v0h2.747c1.34 0.004 2.425 1.090 2.43 2.429v23.98c-0.004 1.34-1.090 2.425-2.429 2.43h-27.141c-1.341-0.004-2.427-1.091-2.43-2.432v-23.977c0.004-1.34 1.090-2.425 2.429-2.43h2.935c0.46 0 0.833 0.373 0.833 0.833s-0.373 0.833-0.833 0.833v0h-2.935c-0.21 0.002-0.4 0.087-0.539 0.224l0-0c-0.138 0.138-0.224 0.328-0.224 0.539 0 0 0 0 0 0v0 4.503zM30.331 11.763h-28.664v17.805c0.002 0.21 0.087 0.4 0.224 0.539l-0-0c0.138 0.138 0.328 0.224 0.539 0.224 0 0 0 0 0 0h27.138c0.21-0.002 0.4-0.087 0.539-0.224l-0 0c0.138-0.138 0.224-0.328 0.224-0.539 0-0 0-0 0-0v0-17.805zM13.143 4.828c-0.46 0-0.833-0.373-0.833-0.833s0.373-0.833 0.833-0.833v0h5.583c0.46 0 0.833 0.373 0.833 0.833s-0.373 0.833-0.833 0.833v0z"></path>
</symbol>
<symbol id="delivery" viewBox="0 0 32 32">
<path d="M20.059 4.972h-0c-0.354 0.001-0.641 0.288-0.642 0.643v7.139h-3.317c-0.481-0.016-0.741 0.203-0.741 0.687v2.524c2.055 1.618 2.373 4.152 0.494 5.575h-2.922c-0.081-2.417-1.465-3.905-3.77-5.539l1.374-4.233c0.567-1.316 0.193-2.313-0.632-3.013 0.258-0.819 0.442-1.54 0.388-2.12l1.439 0.294c0.479 0.096 0.588 0.263 0.739-0.187l-0.004 0.014c0.026-0.076 0.048-0.155 0.067-0.248 0.117-0.617 0.044-0.575-0.458-0.674l-1.54-0.297h-0.458l-0.551-0.31c-0.314-0.182-0.665-0.307-1.055-0.361l-0.494-0.031c-0.507 0-1.077-0.141-1.366 0.33l0-0.001c-0.002 0.013-0.003 0.027-0.003 0.040s0.001 0.027 0.003 0.039l-0.007 0.002c-0.215 0.082-0.394 0.235-0.513 0.435l0.005-0.008c-0.168 0.28-0.265 0.608-0.265 0.959 0 0.014 0 0.027 0 0.038l0-0.002c-0 0.014-0 0.027-0 0.041 0 0.35 0.097 0.677 0.261 0.947l0.002 0.005c0.149 0.265 0.424 0.45 0.747 0.474 0.174 0.127 0.447 0.062 0.708 0.062l1.228 0.018 0.077-0.169c-1.399 2.795-2.363 5.845-2.821 9.215 1.688 0.414 0.882 0.219 0.021 0-2.406-0.541-4.399 0.247-6.049 2.123l1.98 0.944c-0.723 0.72-1.17 1.717-1.17 2.817 0 2.197 1.781 3.978 3.978 3.978 2.070 0 3.77-1.581 3.961-3.616l2.058 0.97-0.006 0.055c0.063-0.468 0.095-0.945 0.095-1.429 0-0.047-0-0.094-0.001-0.134v0.208h9.886l0 0.011c0.122 2.045 1.819 3.666 3.895 3.666s3.773-1.621 3.896-3.677h3.281c0.229-4.459-1.878-7.888-5.565-8.216h4.961c0.396-0.001 0.716-0.322 0.718-0.718v-0.78c0 0 0 0 0 0 0-0.39-0.315-0.706-0.705-0.708h-0.062v-7.139c-0.001-0.354-0.288-0.641-0.643-0.642h-10.5zM6.338 22.39l-0.005-0.010c0.119 0.236 0.186 0.503 0.186 0.786 0 0.966-0.783 1.748-1.748 1.748s-1.748-0.783-1.748-1.748c0-0.824 0.571-1.516 1.351-1.702l1.964 0.918zM6.624 5.664c0.023 0.658 0.065 1.504 0.096 2.081-0.061-0.054-0.113-0.116-0.157-0.184l-0.002-0.004c-0.146-0.246-0.232-0.542-0.232-0.858 0-0.015 0-0.030 0.001-0.045l-0 0.002c-0-0.013-0.001-0.028-0.001-0.043 0-0.315 0.086-0.61 0.236-0.863l-0.004 0.008c0.021-0.031 0.042-0.062 0.062-0.088zM25.553 6.077c0.163 0.001 0.31 0.067 0.416 0.174l0 0c0.107 0.109 0.174 0.259 0.174 0.424 0 0.112-0.031 0.218-0.084 0.308l0.002-0.003c0.332 0.051 0.63 0.142 0.908 0.269l-0.021-0.009c1.301 0.65 2.014 1.668 2.014 3.179 0 0 0 0 0 0.001 0 0.092-0.071 0.167-0.161 0.174l-0.001 0h-6.486c0 0 0 0-0 0-0.095 0-0.172-0.077-0.172-0.172 0-0.001 0-0.002 0-0.003v0c-0.001-0.031-0.002-0.067-0.002-0.103 0-1.368 0.819-2.544 1.994-3.065l0.021-0.008c0.257-0.12 0.556-0.211 0.869-0.258l0.018-0.002c-0.052-0.087-0.083-0.193-0.083-0.305 0-0.165 0.067-0.315 0.174-0.423l-0 0c0.107-0.107 0.255-0.174 0.419-0.174h0zM21.427 11.601v-0.486c-0-0.001-0-0.002-0-0.003 0-0.027 0.022-0.049 0.049-0.049 0 0 0 0 0 0v0h8.127c0 0 0 0 0 0 0.027 0 0.049 0.022 0.049 0.049 0 0.001-0 0.002-0 0.003v-0 0.486c0 0.027-0.022 0.049-0.049 0.049v0h-8.127c-0.027 0-0.049-0.022-0.049-0.049v0zM26.393 23.18c-0.037 0.919-0.791 1.65-1.716 1.65s-1.679-0.731-1.716-1.647l-0-0.003z"></path>
</symbol>
<symbol id="facebook" viewBox="0 0 32 32">
<path d="M31.5 15.833c0-8.376-7.053-15.167-15.751-15.167-8.696 0-15.749 6.791-15.749 15.167 0 7.569 5.759 13.844 13.289 14.983v-10.597h-4v-4.385h4v-3.341c0-3.8 2.352-5.901 5.949-5.901 1.723 0 3.525 0.296 3.525 0.296v3.733h-1.987c-1.955 0-2.567 1.168-2.567 2.369v2.844h4.367l-0.697 4.387h-3.669v10.597c7.531-1.137 13.289-7.413 13.289-14.984z"></path>
</symbol>
<symbol id="instagram" viewBox="0 0 32 32">
<path d="M22.312 3.195c0 0 0.001 0 0.001 0 1.798 0 3.431 0.707 4.636 1.858l-0.003-0.002c1.18 1.127 1.917 2.708 1.928 4.462v12.639c-0.011 1.756-0.748 3.337-1.926 4.462l-0.002 0.002c-1.202 1.149-2.835 1.856-4.634 1.856-0 0-0.001 0-0.001 0h-13.124c-0 0-0.001 0-0.001 0-1.798 0-3.431-0.707-4.636-1.858l0.003 0.002c-1.18-1.127-1.917-2.708-1.928-4.462v-12.639c0.011-1.756 0.748-3.337 1.926-4.462l0.002-0.002c1.202-1.149 2.835-1.856 4.633-1.856h13.124zM22.312 0.667h-13.124c-5.055 0-9.188 3.981-9.188 8.848v12.637c0 4.867 4.133 8.848 9.187 8.848h13.125c5.053 0 9.188-3.981 9.188-8.848v-12.637c0-4.867-4.133-8.848-9.187-8.848z"></path>
<path d="M24.28 9.515c-0.388 0-0.769-0.112-1.093-0.32-0.319-0.206-0.568-0.496-0.719-0.838l-0.005-0.012c-0.095-0.214-0.15-0.463-0.15-0.725 0-0.131 0.014-0.259 0.040-0.383l-0.002 0.012c0.075-0.367 0.263-0.705 0.539-0.971 0.275-0.264 0.627-0.445 1.008-0.519 0.115-0.023 0.248-0.036 0.384-0.036 0.271 0 0.531 0.053 0.767 0.149l-0.014-0.005c0.36 0.144 0.667 0.387 0.884 0.699 0.207 0.294 0.331 0.66 0.331 1.055 0 0.527-0.221 1.002-0.575 1.339l-0.001 0.001c-0.179 0.172-0.392 0.311-0.627 0.406l-0.013 0.005c-0.239 0.096-0.495 0.144-0.753 0.144zM15.749 10.777c1.040 0 2.053 0.297 2.917 0.853 0.851 0.55 1.516 1.322 1.92 2.235l0.013 0.033c0.399 0.924 0.501 1.94 0.3 2.92-0.219 1.026-0.728 1.91-1.436 2.588l-0.002 0.002c-0.733 0.707-1.669 1.189-2.688 1.384-0.308 0.062-0.661 0.097-1.023 0.097-0.724 0-1.415-0.141-2.047-0.398l0.036 0.013c-0.971-0.39-1.772-1.032-2.346-1.845l-0.011-0.016c-0.552-0.784-0.883-1.758-0.884-2.809v-0c0.006-1.405 0.595-2.672 1.537-3.572l0.002-0.002c0.96-0.918 2.265-1.483 3.701-1.483 0.004 0 0.008 0 0.012 0h-0.001zM15.749 8.251c-0.003 0-0.006 0-0.009 0-1.621 0-3.13 0.476-4.396 1.296l0.032-0.019c-1.278 0.825-2.276 1.985-2.883 3.356l-0.019 0.049c-0.379 0.855-0.599 1.852-0.599 2.901 0 0.524 0.055 1.035 0.16 1.528l-0.008-0.048c0.329 1.539 1.092 2.864 2.152 3.88l0.003 0.003c1.079 1.034 2.452 1.769 3.982 2.067l0.050 0.008c0.462 0.093 0.994 0.146 1.538 0.146 1.085 0 2.121-0.212 3.068-0.596l-0.055 0.020c1.456-0.586 2.656-1.549 3.517-2.769l0.017-0.025c0.829-1.175 1.325-2.636 1.328-4.213v-0.001c-0.007-2.109-0.89-4.010-2.304-5.36l-0.003-0.003c-1.439-1.374-3.392-2.22-5.543-2.22-0.009 0-0.018 0-0.027 0h0.001z"></path>
</symbol>
<symbol id="location" viewBox="0 0 32 32">
<path d="M29.545 28.136h-27.171l2.078-6.779c0.088-0.289 0.269-0.574 0.574-0.574h1.802l-0.943-1.759h-0.859c-0.655 0-1.172 0.261-1.576 0.663h-0.007c-0.327 0.327-0.541 0.749-0.668 1.155l-2.774 9.054h32l-3.101-9.102c-0.114-0.335-0.287-0.683-0.555-0.989-0.413-0.473-0.959-0.781-1.683-0.781h-0.426l-0.866 1.759h1.293c0.304 0 0.473 0.278 0.574 0.574l2.309 6.779zM17.497 16.569c0.001 1.122 1.337 1.029 1.31 0.021l-0.144-4.302c1.941-0.509 1.674-5.138-0.583-5.164-1.857-0.022-2.448 4.109-0.593 5.181l0.009 4.264zM14.538 11.755c-0.082 0.056-0.227 0.098-0.403 0.125l0.166 4.786c0.011 0.392-0.309 0.715-0.686 0.715h-0.076c-0.334 0-0.621-0.286-0.609-0.636l0.189-4.864c-0.135-0.020-0.251-0.049-0.335-0.086-0.549-0.242-0.734-0.814-0.746-1.516l0.079-2.416c0.009-0.246-0.037-0.537 0.191-0.683 0.214-0.134 0.529-0.032 0.542 0.253l-0.024 2.105c-0.014 0.42 0.521 0.371 0.49 0 0-0.588 0.024-1.53 0.024-2.119 0.008-0.417 0.618-0.379 0.626 0l-0.024 2.119c-0.002 0.396 0.574 0.384 0.576 0l0.025-2.048c0.032-0.395 0.671-0.353 0.676 0v2.524c0.041 0.982-0.201 1.412-0.681 1.74zM17.356 26.041c1.964-1.209 3.68-2.855 5.018-4.749 1.359-1.924 2.34-4.126 2.809-6.406 0.311-1.507 0.385-3.013 0.197-4.437-0.184-1.405-0.626-2.737-1.344-3.924-0.218-0.357-0.465-0.707-0.744-1.047-0.274-0.335-0.567-0.646-0.874-0.924-0.871-0.795-1.827-1.394-2.829-1.809-1.036-0.422-2.124-0.632-3.226-0.641-1.106-0.007-2.21 0.19-3.27 0.581-1.046 0.386-2.059 0.961-2.998 1.708-0.417 0.331-0.797 0.69-1.134 1.071-0.355 0.393-0.668 0.806-0.939 1.227-0.674 1.061-1.117 2.238-1.338 3.485-0.22 1.243-0.216 2.561 0.001 3.906 0.207 1.294 0.613 2.602 1.202 3.877 0.578 1.245 1.332 2.469 2.254 3.624 0.681 0.858 1.456 1.679 2.317 2.442 0.831 0.741 1.748 1.438 2.741 2.069l0.005 0.006c0.318 0.202 0.679 0.299 1.039 0.299h0c0.417-0.002 0.803-0.136 1.113-0.358zM16.509 24.657c-0.154 0.113-0.363 0.128-0.533 0.018-1.845-1.174-3.397-2.585-4.614-4.116-1.681-2.109-2.74-4.447-3.102-6.699-0.369-2.283-0.024-4.479 1.112-6.265 0.448-0.706 1.020-1.349 1.717-1.904 1.604-1.279 3.436-1.952 5.258-1.939 1.758 0.013 3.491 0.669 4.989 2.036 0.527 0.478 0.97 1.027 1.332 1.622 1.222 2.012 1.485 4.578 0.947 7.179-0.837 4.075-3.529 7.896-7.107 10.068z"></path>
</symbol>
<symbol id="logo" viewBox="7.4 8.1 16.9 15.9">
<path d="M16 21.479c-2.878 0-5.222-2.343-5.222-5.224s2.343-5.222 5.222-5.222 5.222 2.342 5.222 5.224-2.343 5.222-5.222 5.222zM16 11.2c-2.787 0-5.055 2.268-5.055 5.057s2.268 5.055 5.055 5.055c2.787 0 5.055-2.267 5.055-5.057s-2.268-5.055-5.055-5.055z"></path>
<path d="M16 22.479c-0.444-0-0.877-0.046-1.294-0.134l0.041 0.007c-0.446-0.092-0.837-0.217-1.209-0.377l0.040 0.015c-0.406-0.174-0.753-0.366-1.078-0.588l0.022 0.014c-0.33-0.222-0.638-0.479-0.92-0.76-0.275-0.276-0.525-0.576-0.746-0.899l-0.014-0.022c-0.006-0.011-0.010-0.023-0.010-0.037 0-0.040 0.032-0.072 0.072-0.072 0.024 0 0.045 0.011 0.058 0.029l0 0c0.444 0.652 0.989 1.198 1.621 1.629l0.021 0.014c0.297 0.204 0.636 0.391 0.993 0.545l0.039 0.015c0.324 0.141 0.705 0.263 1.101 0.346l0.040 0.007c0.8 0.163 1.648 0.163 2.45 0 0.435-0.090 0.816-0.212 1.179-0.369l-0.039 0.015c0.36-0.152 0.707-0.342 1.032-0.56 0.336-0.229 0.631-0.473 0.9-0.742l-0 0c0.27-0.269 0.514-0.563 0.728-0.879l0.013-0.021c0.013-0.018 0.034-0.029 0.058-0.029 0.040 0 0.072 0.032 0.072 0.072 0 0.014-0.004 0.027-0.010 0.037l0-0c-0.234 0.344-0.484 0.645-0.76 0.92l-0 0c-0.275 0.276-0.576 0.526-0.898 0.746l-0.021 0.014c-0.304 0.209-0.651 0.401-1.017 0.558l-0.040 0.015c-0.332 0.145-0.723 0.27-1.128 0.355l-0.040 0.007c-0.377 0.080-0.81 0.126-1.253 0.127h-0zM21.098 12.889c-0.025-0-0.046-0.013-0.060-0.031l-0-0c-0.229-0.337-0.473-0.631-0.742-0.9l0 0c-0.269-0.27-0.563-0.514-0.879-0.729l-0.021-0.013c-0.297-0.204-0.636-0.391-0.993-0.545l-0.039-0.015c-0.324-0.141-0.705-0.263-1.101-0.346l-0.040-0.007c-0.8-0.163-1.648-0.163-2.45 0-0.435 0.090-0.816 0.212-1.179 0.368l0.039-0.015c-0.396 0.17-0.735 0.358-1.053 0.574l0.021-0.014c-0.652 0.444-1.198 0.99-1.628 1.621l-0.014 0.021c-0.013 0.019-0.035 0.032-0.060 0.032-0.015 0-0.029-0.005-0.040-0.012l0 0c-0.019-0.013-0.032-0.035-0.032-0.060 0-0.015 0.005-0.029 0.012-0.040l-0 0c0.234-0.344 0.484-0.645 0.76-0.92l0-0c0.276-0.275 0.576-0.525 0.898-0.746l0.022-0.014c0.332-0.225 0.688-0.417 1.057-0.574 0.331-0.144 0.722-0.27 1.127-0.356l0.041-0.007c0.377-0.080 0.81-0.126 1.253-0.126s0.877 0.046 1.294 0.133l-0.041-0.007c0.445 0.092 0.836 0.217 1.208 0.379l-0.039-0.015c0.368 0.157 0.725 0.348 1.057 0.574 0.344 0.234 0.645 0.484 0.92 0.76l0 0c0.275 0.276 0.525 0.576 0.746 0.899l0.014 0.022c0.008 0.011 0.012 0.025 0.012 0.040 0 0.025-0.013 0.047-0.032 0.060l-0 0c-0.011 0.007-0.025 0.011-0.040 0.012h-0z"></path>
<path d="M16.252 18.114c-0.375 0-0.74-0.080-1.085-0.237-0.238 0.114-0.516 0.18-0.811 0.18-0.001 0-0.002 0-0.003 0h0c-1.070 0-1.942-0.872-1.942-1.942 0-0.91 0.638-1.702 1.523-1.896 0.463-0.854 1.347-1.38 2.317-1.38 1.388 0 2.533 1.075 2.627 2.458 0.438 0.272 0.708 0.754 0.708 1.269 0 0.824-0.67 1.494-1.493 1.494-0.269-0-0.521-0.072-0.739-0.197l0.007 0.004c-0.324 0.157-0.704 0.248-1.106 0.248-0.001 0-0.003 0-0.004 0h0zM15.167 17.694l0.037 0.017c0.678 0.318 1.457 0.313 2.128-0.015l0.040-0.020 0.038 0.023c0.195 0.12 0.432 0.191 0.685 0.192h0c0.732 0 1.327-0.595 1.327-1.327 0-0.472-0.255-0.912-0.665-1.149l-0.040-0.023-0.002-0.045c-0.067-1.314-1.148-2.344-2.463-2.344-0.922 0-1.76 0.508-2.188 1.327l-0.018 0.035-0.038 0.008c-0.827 0.165-1.428 0.897-1.428 1.741 0 0.979 0.797 1.776 1.775 1.776 0.27 0 0.53-0.062 0.777-0.18l0.037-0.015z"></path>
<path d="M17.955 19.672h-3.91v-1.804l0.093 0.012c0.082 0.010 0.15 0.015 0.215 0.015 0.27 0 0.53-0.062 0.777-0.18l0.037-0.020 0.037 0.017c0.678 0.318 1.457 0.313 2.128-0.015l0.040-0.020 0.038 0.023c0.137 0.083 0.296 0.144 0.467 0.172l0.008 0.001 0.070 0.012v1.787zM14.212 19.505h3.577v-1.481c-0.16-0.034-0.302-0.089-0.432-0.164l0.007 0.004c-0.695 0.327-1.495 0.332-2.197 0.015-0.238 0.114-0.516 0.18-0.811 0.18-0.001 0-0.002 0-0.003 0h0c-0.045 0-0.092-0.002-0.142-0.007v1.452zM14.342 15.545c-0 0-0.001 0-0.001 0-0.046 0-0.083-0.037-0.083-0.083 0-0 0-0.001 0-0.001v0c0-1.085 0.883-1.969 1.968-1.969 0.047 0 0.083 0.037 0.083 0.083 0 0 0 0.001 0 0.001 0 0.046-0.037 0.083-0.083 0.083-0 0-0.001 0-0.001 0h0c-0.993 0-1.802 0.809-1.802 1.802 0 0 0 0.001 0 0.001 0 0.046-0.037 0.083-0.083 0.083-0 0-0.001 0-0.001 0h0zM31.917 14.006h-11.242c-0 0-0 0-0.001 0-0.046 0-0.083-0.037-0.083-0.083 0-0 0-0.001 0-0.001v0c0-0.047 0.037-0.083 0.083-0.083h11.242c0.047 0 0.083 0.037 0.083 0.083 0 0 0 0.001 0 0.001 0 0.046-0.037 0.083-0.083 0.083-0 0-0.001 0-0.001 0h0zM31.917 18.673h-11.242c-0 0-0.001 0-0.001 0-0.046 0-0.082-0.037-0.082-0.082 0-0 0-0.001 0-0.001v0c0-0.047 0.037-0.083 0.083-0.083h11.242c0.047 0 0.083 0.037 0.083 0.083 0 0 0 0.001 0 0.001 0 0.046-0.037 0.082-0.082 0.082-0 0-0.001 0-0.001 0h0zM11.325 14.006h-11.242c-0 0-0.001 0-0.001 0-0.046 0-0.083-0.037-0.083-0.083 0-0 0-0.001 0-0.001v0c0-0.047 0.037-0.083 0.083-0.083h11.242c0.047 0 0.083 0.037 0.083 0.083s-0.037 0.083-0.083 0.083v0zM11.325 18.673h-11.242c-0 0-0.001 0-0.001 0-0.046 0-0.083-0.037-0.083-0.083 0-0 0-0.001 0-0.001v0c0-0.047 0.037-0.083 0.083-0.083h11.242c0.047 0 0.083 0.037 0.083 0.083s-0.037 0.083-0.083 0.083v0zM6.36 16.667h-2.883c-0.227-0.001-0.411-0.185-0.412-0.412v-0c0-0.227 0.184-0.411 0.412-0.412h3.11c0.047 0 0.083 0.037 0.083 0.083 0 0 0 0.001 0 0.001 0 0.046-0.037 0.083-0.083 0.083-0 0-0.001 0-0.001 0h-3.11c-0.135 0-0.245 0.11-0.245 0.245v0c0 0.135 0.11 0.245 0.245 0.245h2.882c0.047 0 0.083 0.037 0.083 0.083 0 0 0 0.001 0 0.001 0 0.045-0.037 0.082-0.082 0.082h-0z"></path>
<path d="M1.643 17.432c-0.875 0-1.588-0.527-1.588-1.175s0.712-1.175 1.588-1.175c0.875 0 1.588 0.527 1.588 1.175s-0.712 1.175-1.588 1.175zM1.643 15.247c-0.783 0-1.422 0.454-1.422 1.009s0.638 1.009 1.422 1.009c0.783 0 1.422-0.454 1.422-1.009s-0.637-1.009-1.422-1.009zM28.338 16.667h-2.882c-0 0-0 0-0.001 0-0.046 0-0.083-0.037-0.083-0.083 0-0 0-0.001 0-0.001v0c0-0.047 0.037-0.083 0.083-0.083h2.882c0.135-0 0.245-0.11 0.245-0.245v-0c-0-0.135-0.11-0.245-0.245-0.245h-3.11c-0 0-0.001 0-0.001 0-0.046 0-0.083-0.037-0.083-0.083 0-0 0-0.001 0-0.001v0c0-0.047 0.037-0.083 0.083-0.083h3.11c0.227 0.001 0.411 0.185 0.412 0.412v0c-0 0.227-0.184 0.411-0.412 0.412h-0z"></path>
<path d="M29.92 17.036h-0.557c-0.43 0-0.78-0.35-0.78-0.78s0.35-0.78 0.78-0.78h0.557v1.561zM29.363 15.643c-0.338 0-0.613 0.275-0.613 0.614s0.275 0.613 0.613 0.613h0.39v-1.225h-0.39v-0.002z"></path>
<path d="M31.677 15.643h-1.838c-0 0-0 0-0.001 0-0.046 0-0.083-0.037-0.083-0.083 0-0 0-0.001 0-0.001v0c0-0.047 0.037-0.083 0.083-0.083h1.838c0.047 0 0.083 0.037 0.083 0.083s-0.037 0.083-0.083 0.083v0zM31.677 16.339h-1.838c-0 0-0 0-0.001 0-0.046 0-0.083-0.037-0.083-0.083 0-0 0-0.001 0-0.001v0c0-0.047 0.037-0.083 0.083-0.083h1.838c0.047 0 0.083 0.037 0.083 0.083s-0.037 0.083-0.083 0.083v0zM31.677 17.036h-1.838c-0 0-0 0-0.001 0-0.046 0-0.083-0.037-0.083-0.083 0-0 0-0.001 0-0.001v0c0-0.047 0.037-0.083 0.083-0.083h1.838c0.047 0 0.083 0.037 0.083 0.083s-0.037 0.083-0.083 0.083h-0zM10.875 17.432h-1.457c-0 0-0.001 0-0.001 0-0.046 0-0.083-0.037-0.083-0.083 0-0 0-0.001 0-0.001v0c0-0.047 0.037-0.083 0.083-0.083h1.457c0.047 0 0.083 0.037 0.083 0.083 0 0 0 0.001 0 0.001 0 0.046-0.037 0.083-0.083 0.083-0 0-0.001 0-0.001 0h0zM10.803 16.19h-2.765c-0 0-0.001 0-0.001 0-0.046 0-0.083-0.037-0.083-0.083 0-0 0-0.001 0-0.001v0c0-0.047 0.037-0.083 0.083-0.083h2.765c0.047 0 0.083 0.037 0.083 0.083 0 0 0 0.001 0 0.001 0 0.046-0.037 0.083-0.083 0.083-0 0-0.001 0-0.001 0h0zM10.987 14.948h-1.457c-0 0-0.001 0-0.001 0-0.046 0-0.083-0.037-0.083-0.083 0-0 0-0.001 0-0.001v0c0-0.047 0.037-0.083 0.083-0.083h1.457c0.047 0 0.083 0.037 0.083 0.083 0 0 0 0.001 0 0.001 0 0.046-0.037 0.083-0.083 0.083-0 0-0.001 0-0.001 0h0zM10.873 16.811h-2.163c-0 0-0.001 0-0.001 0-0.046 0-0.083-0.037-0.083-0.083 0-0 0-0.001 0-0.001v0c0-0.047 0.037-0.083 0.083-0.083h2.163c0.047 0 0.083 0.037 0.083 0.083s-0.037 0.083-0.083 0.083v0zM10.862 15.56h-2.163c-0 0-0.001 0-0.001 0-0.046 0-0.083-0.037-0.083-0.083 0-0 0-0.001 0-0.001v0c0-0.047 0.037-0.083 0.083-0.083h2.163c0.047 0 0.083 0.037 0.083 0.083 0 0 0 0.001 0 0.001 0 0.046-0.037 0.083-0.083 0.083-0 0-0.001 0-0.001 0h0zM22.58 15.097h-1.457c-0 0-0 0-0.001 0-0.046 0-0.083-0.037-0.083-0.083 0-0 0-0.001 0-0.001v0c0-0.047 0.037-0.083 0.083-0.083h1.457c0.047 0 0.083 0.037 0.083 0.083 0 0 0 0.001 0 0.001 0 0.046-0.037 0.083-0.083 0.083-0 0-0.001 0-0.001 0h0zM23.962 16.339h-2.765c-0 0-0.001 0-0.001 0-0.046 0-0.083-0.037-0.083-0.083 0-0 0-0.001 0-0.001v0c0-0.047 0.037-0.083 0.083-0.083h2.765c0.047 0 0.083 0.037 0.083 0.083 0 0 0 0 0 0.001 0 0.046-0.037 0.083-0.083 0.083-0 0-0.001 0-0.001 0h0zM22.468 17.581h-1.457c-0 0-0 0-0.001 0-0.046 0-0.083-0.037-0.083-0.083 0-0 0-0.001 0-0.001v0c0-0.047 0.037-0.083 0.083-0.083h1.457c0.047 0 0.083 0.037 0.083 0.083 0 0 0 0 0 0.001 0 0.046-0.037 0.083-0.083 0.083-0 0-0.001 0-0.001 0h0zM23.29 15.719h-2.163c-0 0-0.001 0-0.001 0-0.046 0-0.083-0.037-0.083-0.083 0-0 0-0.001 0-0.001v0c0-0.047 0.037-0.083 0.083-0.083h2.163c0.047 0 0.083 0.037 0.083 0.083 0 0 0 0.001 0 0.001 0 0.046-0.037 0.083-0.083 0.083-0 0-0.001 0-0.001 0h0zM23.302 16.969h-2.163c-0 0-0 0-0.001 0-0.046 0-0.083-0.037-0.083-0.083 0-0 0-0.001 0-0.001v0c0-0.047 0.037-0.083 0.083-0.083h2.163c0.047 0 0.083 0.037 0.083 0.083s-0.037 0.083-0.083 0.083h-0zM10.502 20.414l-0.832 0.213-0.132-0.208 0.337-0.398-0.508 0.127-0.132-0.208 0.548-0.66 0.127 0.202-0.353 0.418 0.533-0.133 0.113 0.18-0.357 0.42 0.537-0.137 0.118 0.185zM10.727 21.581l-0.13 0.122-0.45-0.477 0.595-0.56 0.44 0.467-0.13 0.122-0.282-0.3-0.103 0.095 0.248 0.263-0.125 0.118-0.248-0.263-0.108 0.102 0.293 0.312zM11.488 21.409l0.182 0.143-0.393 0.497 0.305 0.242-0.113 0.143-0.487-0.385 0.507-0.64zM12.038 22.756c-0.039-0.059-0.063-0.132-0.065-0.21v-0c-0.002-0.075 0.017-0.148 0.058-0.22 0.040-0.072 0.093-0.125 0.158-0.162 0.056-0.033 0.124-0.052 0.196-0.052 0.007 0 0.013 0 0.020 0l-0.001-0c0.077 0.002 0.153 0.025 0.227 0.067 0.065 0.037 0.117 0.082 0.157 0.135s0.063 0.11 0.073 0.173l-0.195 0.042c-0.015-0.082-0.055-0.142-0.12-0.178-0.038-0.022-0.078-0.033-0.117-0.033-0.040 0-0.077 0.010-0.11 0.032-0.035 0.024-0.064 0.054-0.084 0.090l-0.001 0.001c-0.023 0.040-0.035 0.080-0.035 0.12s0.008 0.077 0.030 0.112c0.020 0.033 0.050 0.062 0.088 0.083 0.065 0.037 0.137 0.042 0.215 0.012l0.062 0.188c-0.043 0.017-0.092 0.027-0.144 0.027-0.015 0-0.030-0.001-0.045-0.003l0.002 0c-0.065-0.007-0.13-0.028-0.195-0.065-0.077-0.042-0.135-0.095-0.175-0.16zM13.158 23.31c-0.052-0.058-0.087-0.123-0.102-0.198-0.015-0.073-0.008-0.148 0.018-0.225s0.070-0.138 0.13-0.185c0.056-0.045 0.125-0.077 0.201-0.088l0.002-0c0.077-0.012 0.157-0.002 0.238 0.027 0.079 0.027 0.146 0.072 0.2 0.13l0 0c0.052 0.058 0.087 0.123 0.102 0.198s0.008 0.148-0.018 0.225-0.070 0.138-0.13 0.185c-0.058 0.048-0.127 0.077-0.203 0.088s-0.157 0.002-0.237-0.027c-0.083-0.030-0.15-0.073-0.202-0.13zM13.538 23.27c0.038-0.007 0.072-0.023 0.103-0.050 0.030-0.027 0.053-0.062 0.068-0.105s0.020-0.085 0.013-0.125-0.022-0.075-0.047-0.103c-0.025-0.029-0.057-0.051-0.094-0.064l-0.002-0c-0.023-0.008-0.049-0.013-0.076-0.013-0.014 0-0.027 0.001-0.040 0.004l0.001-0c-0.038 0.007-0.072 0.023-0.103 0.050s-0.053 0.062-0.068 0.105c-0.015 0.043-0.020 0.085-0.013 0.125 0.012 0.080 0.067 0.144 0.14 0.17l0.001 0c0.038 0.013 0.077 0.015 0.115 0.008zM15.043 23.825l0.063-0.428-0.262 0.317-0.102-0.015-0.155-0.369-0.065 0.417-0.212-0.033 0.125-0.807 0.188 0.028 0.212 0.51 0.348-0.423 0.188 0.028-0.122 0.807-0.208-0.032zM16.475 23.688l0.003 0.178-0.655 0.013-0.017-0.817 0.64-0.013 0.003 0.178-0.412 0.008 0.003 0.138 0.363-0.008 0.003 0.173-0.363 0.008 0.003 0.15 0.427-0.010zM17.7 23.030l-0.242 0.065-0.048-0.177 0.707-0.19 0.048 0.177-0.242 0.065 0.165 0.612-0.223 0.060-0.165-0.612zM18.928 23.248c-0.078-0.005-0.148-0.028-0.21-0.072-0.063-0.042-0.11-0.1-0.143-0.173-0.025-0.052-0.039-0.113-0.039-0.177 0-0.016 0.001-0.032 0.003-0.048l-0 0.002c0.009-0.079 0.040-0.149 0.086-0.206l-0.001 0.001c0.048-0.062 0.11-0.11 0.188-0.147s0.157-0.052 0.235-0.047c0.078 0.005 0.148 0.028 0.21 0.072 0.063 0.043 0.11 0.1 0.143 0.175s0.045 0.148 0.037 0.223c-0.009 0.079-0.040 0.149-0.086 0.206l0.001-0.001c-0.048 0.062-0.11 0.11-0.19 0.147-0.077 0.035-0.155 0.050-0.233 0.045zM19.173 22.955c0.022-0.032 0.035-0.067 0.038-0.108 0.003-0.040-0.005-0.082-0.023-0.123-0.017-0.040-0.043-0.073-0.076-0.098l-0.001-0c-0.030-0.023-0.066-0.038-0.106-0.042l-0.001-0c-0.006-0.001-0.012-0.001-0.019-0.001-0.034 0-0.067 0.008-0.096 0.021l0.001-0.001c-0.037 0.016-0.068 0.041-0.090 0.073l-0 0.001c-0.021 0.030-0.035 0.067-0.038 0.108l-0 0.001c-0.003 0.042 0.005 0.082 0.023 0.123s0.045 0.075 0.077 0.098c0.032 0.023 0.068 0.038 0.107 0.042s0.077-0.003 0.113-0.020c0.037-0.016 0.068-0.041 0.090-0.073l0-0.001zM20.725 22.188c-0.027 0.006-0.058 0.010-0.090 0.010-0.047 0-0.093-0.008-0.135-0.022l0.003 0.001c-0.072-0.023-0.133-0.067-0.185-0.128s-0.083-0.13-0.095-0.205c-0.003-0.019-0.005-0.041-0.005-0.064 0-0.056 0.012-0.11 0.033-0.159l-0.001 0.003c0.028-0.072 0.077-0.137 0.143-0.192s0.137-0.092 0.213-0.108c0.077-0.017 0.15-0.013 0.222 0.012 0.074 0.026 0.137 0.070 0.184 0.128l0.001 0.001c0.052 0.062 0.083 0.13 0.095 0.205 0.003 0.019 0.005 0.041 0.005 0.064 0 0.056-0.012 0.11-0.033 0.159l0.001-0.003c-0.028 0.072-0.077 0.137-0.143 0.192-0.058 0.052-0.131 0.090-0.21 0.108l-0.003 0.001zM20.882 21.839c0.013-0.037 0.015-0.075 0.008-0.113-0.010-0.043-0.029-0.081-0.057-0.112l0 0c-0.030-0.035-0.063-0.060-0.1-0.075-0.023-0.010-0.049-0.015-0.077-0.015-0.013 0-0.026 0.001-0.038 0.004l0.001-0c-0.041 0.007-0.076 0.025-0.105 0.050l0-0c-0.032 0.027-0.053 0.058-0.067 0.095-0.008 0.022-0.012 0.046-0.012 0.072 0 0.015 0.001 0.029 0.004 0.043l-0-0.001c0.008 0.040 0.027 0.077 0.057 0.112s0.063 0.060 0.1 0.075c0.023 0.009 0.049 0.015 0.077 0.015 0.013 0 0.026-0.001 0.038-0.003l-0.001 0c0.041-0.007 0.076-0.025 0.105-0.050l-0 0c0.032-0.027 0.055-0.058 0.067-0.095zM21.645 21.266c-0.093 0.010-0.187-0.025-0.28-0.103l-0.347-0.29 0.148-0.177 0.342 0.285c0.1 0.083 0.183 0.085 0.25 0.007 0.065-0.078 0.048-0.16-0.052-0.243l-0.342-0.285 0.147-0.175 0.347 0.29c0.093 0.078 0.143 0.163 0.152 0.258s-0.027 0.188-0.105 0.28c-0.082 0.093-0.167 0.143-0.26 0.153zM22.447 19.928l-0.063 0.108 0.187 0.11-0.117 0.2-0.705-0.412 0.188-0.323c0.037-0.063 0.080-0.113 0.128-0.148 0.043-0.032 0.096-0.053 0.154-0.057l0.001-0c0.053-0.003 0.108 0.012 0.16 0.042s0.088 0.068 0.113 0.113c0.023 0.047 0.033 0.097 0.030 0.155l0.31-0.020-0.125 0.213-0.262 0.018zM22.168 19.64c-0.030 0.010-0.057 0.037-0.082 0.077l-0.065 0.112 0.207 0.12 0.065-0.112c0.023-0.042 0.033-0.077 0.027-0.108-0.005-0.032-0.025-0.057-0.058-0.075s-0.063-0.023-0.093-0.013zM9.308 11.755c0.010 0.082 0.050 0.17 0.123 0.263 0.003 0.002 0.002 0.007-0.003 0.013s-0.010 0.008-0.013 0.007c-0.043-0.040-0.1-0.090-0.17-0.153-0.047-0.043-0.1-0.087-0.153-0.13l-0.007-0.005c-0.007-0.005-0.007-0.010-0.002-0.017s0.010-0.008 0.017-0.003c0.027 0.020 0.065-0.003 0.115-0.072 0.082-0.102 0.173-0.22 0.278-0.36 0.053-0.072 0.108-0.147 0.165-0.228l0.090-0.125c0.035-0.045 0.057-0.082 0.067-0.107s0.008-0.048-0.005-0.068c-0.003-0.005-0.003-0.010 0-0.017 0.005-0.007 0.010-0.007 0.013-0.003 0.048 0.043 0.1 0.088 0.154 0.132l0.008 0.006c0.073 0.060 0.133 0.108 0.18 0.143 0.003 0.003 0.003 0.007-0.002 0.013s-0.010 0.010-0.013 0.008c-0.102-0.057-0.192-0.080-0.268-0.068s-0.145 0.055-0.202 0.132c-0.025 0.033-0.042 0.062-0.047 0.082-0.002 0.006-0.003 0.014-0.003 0.021 0 0.013 0.004 0.025 0.010 0.036l-0-0c0.012 0.017 0.033 0.037 0.065 0.062l0.833 0.625c0.037 0.028 0.067 0.045 0.090 0.050 0.022 0.005 0.045 0 0.067-0.018 0.022-0.017 0.052-0.050 0.087-0.097 0.003-0.003 0.008-0.003 0.015 0.003 0.007 0.005 0.010 0.010 0.007 0.013-0.032 0.042-0.057 0.075-0.077 0.098l-0.113 0.147-0.103 0.142c-0.018 0.027-0.043 0.062-0.077 0.107-0.002 0.002-0.007 0.002-0.013-0.005s-0.010-0.010-0.008-0.012c0.035-0.047 0.058-0.083 0.068-0.112 0.010-0.027 0.010-0.050-0.002-0.072s-0.035-0.045-0.072-0.072l-0.837-0.627c-0.032-0.023-0.057-0.038-0.075-0.042-0.018-0.005-0.037-0.002-0.055 0.010s-0.038 0.033-0.063 0.065c-0.055 0.075-0.077 0.152-0.068 0.233zM12.243 10.53c0.005 0.007 0.007 0.012 0.003 0.015-0.038 0.033-0.072 0.060-0.097 0.078l-0.127 0.105-0.145 0.125c-0.020 0.018-0.047 0.043-0.082 0.072-0.003 0.003-0.008 0.002-0.013-0.007-0.005-0.007-0.007-0.012-0.003-0.015 0.043-0.037 0.073-0.067 0.088-0.088 0.009-0.012 0.015-0.028 0.015-0.045 0-0.008-0.001-0.015-0.003-0.022l0 0.001c-0.007-0.022-0.025-0.050-0.055-0.087l-0.337-0.398-0.592 0.5 0.337 0.398c0.028 0.035 0.055 0.057 0.075 0.068 0.020 0.010 0.043 0.010 0.068 0 0.025-0.012 0.060-0.035 0.103-0.072 0.002-0.002 0.007 0 0.012 0.007 0.007 0.007 0.008 0.012 0.005 0.013-0.038 0.033-0.070 0.058-0.093 0.075l-0.145 0.12-0.125 0.108c-0.020 0.020-0.052 0.047-0.090 0.078-0.002 0.002-0.007 0-0.012-0.007s-0.007-0.012-0.005-0.013c0.042-0.035 0.070-0.063 0.083-0.087 0.009-0.012 0.015-0.028 0.015-0.045 0-0.008-0.001-0.015-0.003-0.022l0 0.001c-0.007-0.023-0.025-0.052-0.055-0.085l-0.675-0.799c-0.030-0.035-0.055-0.057-0.075-0.067s-0.043-0.010-0.068 0c-0.025 0.010-0.057 0.032-0.098 0.067-0.002 0.002-0.007 0-0.012-0.007-0.007-0.007-0.008-0.012-0.005-0.013l0.093-0.075c0.055-0.042 0.097-0.077 0.127-0.102 0.052-0.044 0.097-0.084 0.142-0.126l-0.002 0.001 0.090-0.078c0.002-0.002 0.007 0 0.012 0.007s0.007 0.012 0.005 0.013c-0.043 0.037-0.072 0.067-0.085 0.090-0.015 0.023-0.018 0.047-0.012 0.070s0.025 0.052 0.053 0.087l0.298 0.352 0.592-0.5-0.298-0.352c-0.028-0.035-0.055-0.057-0.075-0.068-0.011-0.005-0.023-0.008-0.037-0.008-0.012 0-0.023 0.002-0.034 0.007l0.001-0c-0.025 0.010-0.060 0.033-0.103 0.070-0.003 0.003-0.008 0.002-0.013-0.007-0.007-0.007-0.007-0.012-0.003-0.015l0.083-0.068c0.057-0.045 0.107-0.085 0.15-0.12 0.032-0.027 0.072-0.063 0.123-0.11l0.093-0.082c0.003-0.003 0.008-0.002 0.013 0.007 0.007 0.007 0.007 0.012 0.003 0.015-0.042 0.035-0.068 0.063-0.083 0.087-0.008 0.012-0.013 0.028-0.013 0.044 0 0.008 0.001 0.016 0.003 0.023l-0-0.001c0.007 0.022 0.025 0.050 0.053 0.085l0.675 0.799c0.028 0.035 0.055 0.057 0.075 0.068 0.022 0.012 0.043 0.012 0.067 0 0.023-0.010 0.057-0.033 0.098-0.068 0.008-0.005 0.013-0.003 0.018 0.003zM13.072 9.718c0.004-0.002 0.008-0.003 0.013-0.003h0c0.005 0 0.007 0.002 0.008 0.002 0.042 0.108 0.083 0.203 0.128 0.288 0.005 0.010 0.008 0.020 0.007 0.027s-0.008 0.013-0.020 0.020l-0.865 0.463c-0.003 0.002-0.008 0-0.012-0.008-0.005-0.008-0.005-0.013 0-0.015 0.045-0.025 0.077-0.045 0.093-0.063 0.014-0.014 0.022-0.033 0.022-0.055 0-0.002-0-0.005-0-0.007l0 0c-0.002-0.023-0.015-0.055-0.037-0.095l-0.493-0.922c-0.022-0.040-0.040-0.067-0.058-0.082-0.017-0.015-0.038-0.020-0.063-0.017-0.025 0.005-0.060 0.018-0.103 0.042-0.003 0.002-0.008 0-0.012-0.008-0.005-0.008-0.005-0.013 0-0.015l0.828-0.443c0.013-0.007 0.023-0.005 0.030 0.007l0.143 0.257c0.002 0.003-0.002 0.007-0.008 0.012s-0.012 0.007-0.015 0.003c-0.113-0.135-0.245-0.16-0.398-0.078l-0.080 0.043c-0.048 0.025-0.077 0.052-0.088 0.080-0.010 0.028-0.005 0.063 0.017 0.103l0.218 0.407 0.192-0.103c0.147-0.078 0.193-0.167 0.14-0.265-0.002-0.003 0-0.008 0.008-0.012s0.012-0.003 0.013 0l0.092 0.175 0.052 0.093c0.025 0.042 0.045 0.075 0.060 0.102 0.002 0.003-0.002 0.007-0.010 0.010-0.008 0.005-0.013 0.005-0.013 0.003-0.062-0.115-0.167-0.132-0.315-0.052l-0.195 0.098 0.242 0.452c0.023 0.043 0.048 0.070 0.073 0.078 0.027 0.008 0.060 0.002 0.102-0.022l0.098-0.052c0.178-0.095 0.245-0.242 0.2-0.44-0.002-0.003 0.002-0.005 0.007-0.008zM13.707 8.504c-0.045 0.068-0.070 0.162-0.075 0.28 0 0.003-0.003 0.005-0.012 0.007s-0.013 0-0.013-0.003c-0.007-0.058-0.018-0.133-0.032-0.225s-0.025-0.16-0.037-0.207c-0.002-0.007 0.002-0.012 0.010-0.013s0.013 0 0.015 0.008c0.008 0.032 0.052 0.038 0.135 0.020 0.127-0.025 0.275-0.057 0.443-0.097 0.087-0.020 0.178-0.043 0.275-0.068l0.148-0.037c0.057-0.013 0.097-0.027 0.12-0.040s0.037-0.032 0.040-0.055c0-0.007 0.003-0.010 0.012-0.012 0.007-0.002 0.012 0 0.013 0.007 0.007 0.047 0.018 0.117 0.035 0.21s0.032 0.168 0.045 0.227c0.002 0.005-0.002 0.008-0.010 0.010s-0.013 0-0.017-0.003c-0.042-0.11-0.095-0.185-0.162-0.225-0.067-0.042-0.147-0.050-0.238-0.030-0.042 0.010-0.070 0.020-0.088 0.032-0.017 0.010-0.028 0.028-0.030 0.048v0c-0.002 0.020 0.002 0.050 0.010 0.090l0.235 1.015c0.010 0.045 0.023 0.077 0.037 0.097 0.013 0.018 0.035 0.028 0.062 0.030 0.028 0.002 0.072-0.005 0.128-0.018 0.005-0.002 0.007 0.003 0.010 0.012 0.002 0.008 0 0.013-0.003 0.015-0.052 0.012-0.092 0.020-0.122 0.027l-0.182 0.040-0.172 0.042c-0.030 0.008-0.073 0.020-0.127 0.032-0.003 0-0.005-0.003-0.007-0.012s-0.002-0.013 0.002-0.013c0.057-0.013 0.098-0.027 0.123-0.040s0.040-0.032 0.045-0.055 0.002-0.057-0.008-0.102l-0.237-1.019c-0.008-0.038-0.018-0.065-0.030-0.082s-0.028-0.025-0.048-0.028c-0.020-0.003-0.052 0-0.090 0.010-0.092 0.013-0.158 0.058-0.205 0.127zM16.557 9.433c0 0.008-0.003 0.013-0.012 0.013-0.028 0.002-0.075 0.002-0.138 0s-0.11 0-0.138 0c-0.038 0.002-0.082 0.005-0.133 0.008-0.052 0.005-0.090 0.008-0.12 0.008-0.007 0-0.010-0.005-0.010-0.013s0.003-0.013 0.008-0.013c0.043-0.002 0.075-0.008 0.095-0.018 0.017-0.008 0.029-0.024 0.029-0.044 0-0.002-0-0.004-0-0.006l0 0c-0.002-0.023-0.015-0.060-0.042-0.113l-0.262-0.487-0.408 0.013-0.16 0.397c-0.018 0.045-0.027 0.087-0.025 0.123 0.002 0.053 0.022 0.092 0.060 0.118 0.038 0.025 0.092 0.038 0.16 0.035 0.007 0 0.012 0.003 0.012 0.013 0 0.008-0.003 0.013-0.010 0.013-0.027 0.002-0.067 0.002-0.118 0-0.057-0.002-0.107 0-0.15 0-0.040 0.002-0.088 0.005-0.142 0.010-0.048 0.005-0.088 0.008-0.12 0.008-0.007 0-0.012-0.003-0.012-0.013 0-0.008 0.003-0.013 0.012-0.013 0.042-0.002 0.077-0.012 0.105-0.028 0.028-0.018 0.055-0.048 0.080-0.092 0.027-0.043 0.055-0.108 0.090-0.195l0.447-1.11c0.007-0.002 0.013-0.005 0.025-0.005 0.010 0 0.017 0.002 0.018 0.007l0.592 1.097c0.057 0.107 0.103 0.18 0.14 0.218s0.075 0.057 0.117 0.055c0.007 0 0.010 0.003 0.012 0.013zM15.45 8.726l0.357-0.012-0.2-0.373-0.157 0.385zM17.048 8.519c0.022 0.049 0.050 0.091 0.085 0.127l-0-0c0.035 0.038 0.085 0.083 0.148 0.138 0.068 0.060 0.122 0.11 0.16 0.152s0.068 0.089 0.090 0.142l0.001 0.003c0.022 0.055 0.028 0.115 0.017 0.182-0.011 0.075-0.044 0.142-0.092 0.194l0-0c-0.048 0.053-0.112 0.090-0.19 0.112s-0.163 0.025-0.255 0.010c-0.071-0.012-0.134-0.031-0.194-0.057l0.005 0.002c-0.063-0.027-0.11-0.055-0.142-0.085-0.012-0.012-0.017-0.027-0.015-0.047l0.042-0.342v-0.002c0.002-0.007 0.005-0.008 0.013-0.008 0.007 0 0.012 0.003 0.012 0.010 0.028 0.132 0.068 0.242 0.12 0.33 0.050 0.088 0.125 0.142 0.223 0.157 0.063 0.010 0.12 0.002 0.168-0.027s0.080-0.083 0.093-0.165c0.010-0.065 0.005-0.125-0.015-0.178s-0.050-0.101-0.087-0.14l0 0c-0.037-0.040-0.088-0.088-0.153-0.148-0.063-0.058-0.113-0.105-0.148-0.145-0.034-0.038-0.063-0.083-0.082-0.132l-0.001-0.003c-0.014-0.034-0.021-0.074-0.021-0.116 0-0.020 0.002-0.039 0.005-0.057l-0 0.002c0.013-0.077 0.045-0.138 0.097-0.185s0.115-0.077 0.188-0.092c0.036-0.008 0.078-0.012 0.12-0.012 0.036 0 0.072 0.003 0.107 0.010l-0.004-0.001c0.050 0.008 0.1 0.022 0.148 0.038 0.048 0.018 0.090 0.037 0.122 0.057 0.013 0.007 0.020 0.013 0.023 0.022 0.003 0.005 0.004 0.012 0.004 0.019 0 0.003-0 0.006-0.001 0.008l0-0-0.042 0.305c0 0.005-0.005 0.007-0.013 0.008s-0.013-0.002-0.013-0.008c-0.015-0.099-0.043-0.188-0.083-0.271l0.003 0.006c-0.038-0.082-0.107-0.13-0.207-0.147-0.067-0.010-0.123 0-0.168 0.032s-0.073 0.082-0.085 0.148c-0.012 0.058-0.005 0.108 0.015 0.157zM18.215 8.498c-0.075 0.033-0.147 0.098-0.215 0.195-0.002 0.003-0.005 0.003-0.013 0s-0.010-0.007-0.010-0.010c0.025-0.053 0.057-0.122 0.097-0.207 0.024-0.048 0.051-0.112 0.076-0.177l0.006-0.017c0.003-0.007 0.008-0.010 0.015-0.007 0.008 0.003 0.010 0.008 0.008 0.015-0.012 0.032 0.023 0.062 0.102 0.090 0.12 0.048 0.262 0.102 0.425 0.16 0.083 0.030 0.173 0.060 0.267 0.092l0.145 0.050c0.053 0.020 0.095 0.030 0.122 0.032s0.048-0.007 0.063-0.025c0.003-0.005 0.008-0.007 0.015-0.003s0.010 0.007 0.008 0.012c-0.020 0.042-0.048 0.108-0.085 0.195-0.017 0.035-0.045 0.106-0.073 0.178l-0.012 0.037c-0.002 0.005-0.007 0.005-0.013 0.002-0.008-0.003-0.012-0.007-0.012-0.012 0.025-0.115 0.020-0.207-0.013-0.277s-0.095-0.122-0.185-0.153c-0.040-0.015-0.070-0.022-0.092-0.022-0 0-0.001 0-0.001 0-0.020 0-0.038 0.009-0.050 0.023l-0 0c-0.013 0.015-0.027 0.042-0.040 0.080l-0.353 0.98c-0.015 0.043-0.023 0.077-0.022 0.1s0.013 0.042 0.037 0.058c0.023 0.017 0.062 0.035 0.118 0.055 0.005 0.002 0.005 0.007 0.002 0.015s-0.007 0.012-0.012 0.010c-0.061-0.022-0.099-0.037-0.138-0.053l0.021 0.008-0.173-0.065-0.167-0.058c-0.030-0.010-0.072-0.023-0.125-0.042-0.003-0.002-0.003-0.007 0-0.015s0.007-0.012 0.008-0.012c0.055 0.020 0.097 0.032 0.127 0.033 0.028 0.002 0.052-0.005 0.068-0.022s0.033-0.047 0.048-0.090l0.355-0.985c0.013-0.037 0.020-0.065 0.018-0.085s-0.011-0.038-0.025-0.050l-0-0c-0.017-0.013-0.043-0.027-0.082-0.042-0.083-0.027-0.165-0.027-0.24 0.007zM19.983 10.347c0.003 0.002 0.007 0.005 0.008 0.010s0.003 0.007 0.002 0.008c-0.072 0.092-0.132 0.177-0.18 0.258-0.007 0.010-0.012 0.017-0.018 0.018s-0.015 0-0.027-0.007l-0.845-0.498c-0.003-0.002-0.003-0.007 0.002-0.015s0.008-0.010 0.013-0.008c0.043 0.027 0.078 0.042 0.102 0.047 0.005 0.001 0.011 0.002 0.017 0.002 0.017 0 0.033-0.006 0.046-0.015l-0 0c0.018-0.015 0.038-0.042 0.062-0.080l0.532-0.902c0.023-0.038 0.037-0.070 0.040-0.092s-0.003-0.043-0.020-0.063-0.047-0.042-0.088-0.067c-0.003-0.002-0.003-0.007 0.002-0.015s0.008-0.010 0.013-0.008l0.81 0.479c0.013 0.008 0.017 0.017 0.008 0.028l-0.145 0.255c-0.002 0.003-0.007 0.002-0.013 0-0.008-0.003-0.012-0.007-0.010-0.012 0.057-0.167 0.010-0.293-0.14-0.382l-0.078-0.045c-0.047-0.028-0.085-0.038-0.113-0.033-0.030 0.005-0.057 0.028-0.080 0.068l-0.235 0.397 0.187 0.11c0.143 0.085 0.243 0.078 0.298-0.018 0.002-0.003 0.007-0.003 0.015 0 0.007 0.005 0.010 0.008 0.007 0.012l-0.102 0.168-0.052 0.093c-0.022 0.043-0.040 0.078-0.055 0.103-0.002 0.003-0.007 0.002-0.013-0.003-0.008-0.005-0.012-0.008-0.010-0.010 0.065-0.112 0.027-0.21-0.118-0.297l-0.185-0.108-0.26 0.442c-0.025 0.043-0.035 0.077-0.028 0.103s0.030 0.052 0.072 0.077l0.095 0.057c0.173 0.103 0.333 0.083 0.48-0.058-0.002-0.002 0.002 0 0.007 0.002zM21.077 11.739c-0.007 0.007-0.012 0.007-0.018 0.002-0.022-0.020-0.055-0.052-0.1-0.095-0.032-0.032-0.065-0.064-0.098-0.095l-0.002-0.002c-0.028-0.025-0.062-0.053-0.102-0.087-0.040-0.032-0.070-0.058-0.092-0.077-0.005-0.003-0.003-0.010 0.002-0.017 0.007-0.007 0.012-0.008 0.017-0.003 0.032 0.030 0.060 0.047 0.082 0.053 0.005 0.002 0.011 0.003 0.017 0.003 0.015 0 0.029-0.007 0.038-0.018l0-0c0.015-0.017 0.032-0.053 0.048-0.112l0.15-0.532-0.303-0.275-0.392 0.173c-0.045 0.020-0.080 0.043-0.103 0.072-0.035 0.038-0.048 0.082-0.038 0.127s0.040 0.090 0.090 0.137c0.005 0.005 0.005 0.012 0 0.018-0.007 0.007-0.012 0.007-0.017 0.002-0.030-0.028-0.058-0.054-0.085-0.082l-0-0c-0.034-0.034-0.069-0.068-0.104-0.101l-0.002-0.002c-0.032-0.029-0.067-0.059-0.103-0.088l-0.005-0.004c-0.038-0.030-0.068-0.055-0.092-0.077-0.005-0.005-0.005-0.012 0-0.018 0.007-0.007 0.012-0.008 0.017-0.003 0.032 0.028 0.063 0.047 0.095 0.053s0.073 0.003 0.122-0.010c0.048-0.013 0.115-0.040 0.2-0.077l1.093-0.485c0.005-0.002 0.012 0.002 0.020 0.008s0.010 0.013 0.008 0.017l-0.338 1.2c-0.033 0.117-0.050 0.2-0.052 0.253 0 0.053 0.013 0.093 0.045 0.122 0.008 0.005 0.008 0.012 0.003 0.018zM20.773 10.462l0.265 0.24 0.115-0.407-0.38 0.167zM22.075 11.013c-0.082-0.013-0.177 0-0.287 0.043-0.002 0.002-0.007 0-0.012-0.007s-0.005-0.012-0.002-0.013c0.050-0.030 0.115-0.070 0.195-0.12 0.078-0.050 0.137-0.088 0.173-0.117 0.007-0.005 0.012-0.003 0.017 0.003s0.005 0.012-0.002 0.017c-0.027 0.020-0.015 0.063 0.035 0.132 0.073 0.107 0.163 0.23 0.267 0.368 0.053 0.072 0.11 0.147 0.173 0.223l0.093 0.122c0.035 0.047 0.062 0.077 0.083 0.093s0.043 0.022 0.067 0.013c0.005-0.002 0.012 0 0.015 0.005 0.005 0.007 0.003 0.010 0 0.015-0.040 0.025-0.1 0.063-0.178 0.117s-0.142 0.097-0.188 0.132c-0.003 0.003-0.008 0-0.013-0.007s-0.007-0.012-0.003-0.015c0.083-0.082 0.132-0.162 0.142-0.238s-0.012-0.155-0.070-0.23c-0.025-0.033-0.047-0.057-0.065-0.068s-0.037-0.015-0.057-0.008-0.045 0.020-0.078 0.045l-0.835 0.624c-0.037 0.028-0.062 0.052-0.073 0.072s-0.012 0.043-0.002 0.070c0.010 0.027 0.033 0.063 0.068 0.11 0.003 0.003 0 0.008-0.007 0.013s-0.012 0.007-0.015 0.003c-0.032-0.042-0.055-0.077-0.073-0.102l-0.108-0.15-0.107-0.14c-0.020-0.025-0.047-0.058-0.080-0.103-0.002-0.002 0.002-0.007 0.008-0.012s0.012-0.007 0.013-0.005c0.035 0.047 0.063 0.080 0.087 0.097 0.023 0.018 0.045 0.025 0.068 0.018 0.023-0.005 0.053-0.022 0.090-0.048l0.838-0.625c0.032-0.023 0.052-0.043 0.062-0.060 0.006-0.010 0.010-0.022 0.010-0.035 0-0.007-0.001-0.014-0.003-0.020l0 0.001c-0.005-0.020-0.020-0.047-0.045-0.080-0.053-0.075-0.12-0.118-0.202-0.132z"></path>
</symbol>
<symbol id="menu" viewBox="0 0 32 32">
<path d="M5.050 0h20.477c0.531 0 1.012 0.216 1.363 0.567 0.35 0.349 0.566 0.831 0.567 1.363v2.956h0.846c0.27 0.009 0.486 0.23 0.486 0.502s-0.216 0.493-0.485 0.502l-0.001 0h-0.846v3.364h0.846c0.27 0.009 0.486 0.23 0.486 0.502s-0.216 0.493-0.485 0.502l-0.001 0h-0.846v3.364h0.846c0.27 0.009 0.486 0.23 0.486 0.502s-0.216 0.493-0.485 0.502l-0.001 0h-0.846v3.364h0.846c0.27 0.009 0.486 0.23 0.486 0.502s-0.216 0.493-0.485 0.502l-0.001 0h-0.846v3.354h0.846c0.27 0.009 0.486 0.23 0.486 0.502s-0.216 0.493-0.485 0.502l-0.001 0h-0.846v3.364h0.846c0.27 0.009 0.486 0.23 0.486 0.502s-0.216 0.493-0.485 0.502l-0.001 0h-0.846v2.323c0 0.531-0.216 1.012-0.567 1.363-0.349 0.35-0.831 0.566-1.363 0.567h-20.478c-0.531 0-1.012-0.216-1.363-0.567-0.35-0.349-0.566-0.831-0.567-1.363v-28.116c0-0.531 0.216-1.012 0.567-1.363 0.349-0.349 0.831-0.564 1.363-0.565h0zM10.318 19.827c0-0.125 0.101-0.226 0.226-0.226s0.226 0.101 0.226 0.226v0 4.399c0 0.065 0.003 0.138 0.005 0.211 0.013 0.609 0.026 1.218-0.068 1.837-0.010 0.062-0.016 0.125-0.023 0.193-0.044 0.395-0.101 0.877-0.476 1.056-0.031 0.016-0.065 0.023-0.099 0.023h-0.486c-0 0-0.001 0-0.001 0-0.020 0-0.039-0.003-0.057-0.008l0.001 0c-0.14-0.029-0.265-0.104-0.377-0.232-0.099-0.112-0.185-0.268-0.26-0.466-0.008-0.018-0.012-0.040-0.013-0.062v-0c-0.034-0.466-0.057-0.942-0.068-1.426-0.008-0.476-0.005-0.952 0.016-1.431v-4.925c-0.463-0.159-0.809-0.429-1.054-0.814-0.263-0.416-0.398-0.96-0.427-1.636v-0.008c-0.016-0.52 0.023-0.986 0.12-1.397 0.099-0.421 0.255-0.788 0.468-1.095 0.232-0.333 0.51-0.585 0.809-0.762 0.356-0.206 0.741-0.302 1.127-0.289s0.765 0.138 1.103 0.375c0.281 0.195 0.533 0.466 0.734 0.814 0.278 0.481 0.455 1.21 0.471 1.962 0.010 0.554-0.062 1.121-0.245 1.613-0.19 0.513-0.494 0.944-0.942 1.205-0.265 0.154-0.575 0.245-0.937 0.252-0.001 0-0.003 0-0.005 0-0.123 0-0.223-0.099-0.224-0.221v-0c-0.003-0.125 0.096-0.226 0.221-0.229 0.281-0.005 0.52-0.075 0.721-0.193 0.346-0.2 0.588-0.552 0.744-0.97 0.161-0.44 0.229-0.95 0.219-1.449-0.013-0.676-0.166-1.324-0.411-1.743-0.166-0.286-0.372-0.51-0.601-0.669-0.265-0.185-0.562-0.284-0.861-0.294s-0.604 0.065-0.885 0.229c-0.245 0.143-0.473 0.351-0.666 0.63-0.182 0.26-0.315 0.575-0.398 0.939-0.086 0.375-0.122 0.801-0.109 1.283v0.003c0.023 0.596 0.138 1.067 0.356 1.415 0.208 0.328 0.518 0.549 0.947 0.666 0.101 0.021 0.18 0.112 0.18 0.221v5.097c-0.021 0.476-0.026 0.947-0.016 1.415 0.008 0.453 0.031 0.908 0.065 1.371 0.052 0.133 0.107 0.229 0.164 0.297 0.039 0.044 0.078 0.073 0.117 0.083h0.401c0.122-0.107 0.159-0.419 0.19-0.679 0.008-0.075 0.016-0.148 0.026-0.208 0.091-0.588 0.078-1.173 0.065-1.759-0.003-0.068-0.003-0.138-0.005-0.211v-0.023l-0.008-4.389zM20.209 21.643c-0.125 0-0.226-0.101-0.226-0.226s0.101-0.226 0.226-0.226h1.28v-3.827c-0.070-1.087-0.323-1.917-0.723-2.544-0.33-0.518-0.762-0.9-1.277-1.176v12.576c0 0.073 0 0.159 0.003 0.219 0.010 0.26 0.057 0.57 0.297 0.559h0.513c0.255-0.034 0.247-0.343 0.245-0.609 0-0.068-0.003-0.127-0.003-0.13v-3.819c0-0.125 0.101-0.226 0.226-0.226s0.226 0.101 0.226 0.226v0 3.939c0.008 0.46 0.018 0.991-0.645 1.064-0.013 0.003-0.028 0.005-0.044 0.005h-0.51c-0.624 0.021-0.736-0.531-0.757-0.991-0.005-0.101-0.005-0.174-0.005-0.234v-12.938c0.001-0.124 0.101-0.224 0.225-0.224 0.032 0 0.063 0.007 0.091 0.019l-0.001-0.001c0.734 0.315 1.345 0.796 1.793 1.501 0.44 0.692 0.718 1.592 0.794 2.758 0 0.010 0.003 0.018 0.003 0.029v4.056c0 0.125-0.101 0.226-0.226 0.226h-1.501v-0.005zM15.456 13.211c0-0.125 0.101-0.226 0.226-0.226s0.226 0.101 0.226 0.226v0 3.811c0 0.125-0.101 0.226-0.226 0.226s-0.226-0.101-0.226-0.226v0-3.811zM16.874 13.214c0-0.125 0.101-0.226 0.226-0.226s0.226 0.101 0.226 0.226v0 4.15c0 0.010 0 0.018-0.003 0.029-0.034 0.58-0.172 1.025-0.408 1.332-0.255 0.333-0.617 0.507-1.080 0.52-0.002 0-0.005 0-0.007 0-0.122 0-0.221-0.097-0.224-0.218v-0c-0.003-0.125 0.094-0.229 0.219-0.232 0.32-0.010 0.565-0.122 0.734-0.343 0.182-0.237 0.286-0.598 0.315-1.087v-4.15h0.003zM13.971 13.201c0-0.125 0.101-0.226 0.226-0.226s0.226 0.101 0.226 0.226v0 4.155c0.018 0.354 0.078 0.643 0.182 0.861 0.094 0.193 0.224 0.32 0.401 0.377 0.096 0.031 0.156 0.12 0.156 0.213v7.815c0 0.008 0 0.018-0.003 0.026-0.010 0.146 0.008 0.247 0.055 0.307 0.042 0.052 0.112 0.086 0.213 0.099h0.497c0.065-0.026 0.12-0.068 0.159-0.125 0.052-0.075 0.088-0.185 0.107-0.32v-6.673c0-0.125 0.101-0.226 0.226-0.226s0.226 0.101 0.226 0.226v0 6.686c0 0.010 0 0.018-0.003 0.029-0.026 0.216-0.088 0.393-0.185 0.536-0.101 0.146-0.237 0.25-0.408 0.304-0.026 0.010-0.057 0.018-0.086 0.018h-0.541c-0.008 0-0.016 0-0.026-0.003-0.234-0.026-0.414-0.114-0.536-0.276-0.114-0.151-0.166-0.354-0.146-0.614v-7.659c-0.224-0.112-0.39-0.297-0.513-0.544-0.133-0.271-0.206-0.619-0.226-1.033-0.003-0.010-0.003-0.018-0.003-0.029v-4.152zM7.628 4.254h14.845c0.369 0 0.671 0.302 0.671 0.671v3.208c0 0.369-0.302 0.671-0.671 0.671h-14.845c-0.369 0-0.671-0.302-0.671-0.671v-3.205c0-0.369 0.302-0.674 0.671-0.674zM25.665 27.718c-0.27-0.009-0.486-0.23-0.486-0.502s0.216-0.493 0.485-0.502l0.001-0h0.794v-3.364h-0.794c-0.27-0.009-0.486-0.23-0.486-0.502s0.216-0.493 0.485-0.502l0.001-0h0.794v-3.361h-0.794c-0.27-0.009-0.486-0.23-0.486-0.502s0.216-0.493 0.485-0.502l0.001-0h0.794v-3.361h-0.794c-0.27-0.009-0.486-0.23-0.486-0.502s0.216-0.493 0.485-0.502l0.001-0h0.794v-3.361h-0.794c-0.27-0.009-0.486-0.23-0.486-0.502s0.216-0.493 0.485-0.502l0.001-0h0.794v-3.361h-0.794c-0.27-0.009-0.486-0.23-0.486-0.502s0.216-0.493 0.485-0.502l0.001-0h0.794v-2.955c0-0.255-0.104-0.486-0.273-0.656-0.167-0.169-0.399-0.273-0.656-0.273h-20.48c-0.255 0-0.487 0.104-0.656 0.273s-0.273 0.401-0.273 0.656v28.111c0 0.255 0.104 0.486 0.273 0.656s0.401 0.273 0.656 0.273h20.477c0.255 0 0.486-0.104 0.656-0.273s0.273-0.401 0.273-0.656v-2.323h-0.791v0.003z"></path>
</symbol>
<symbol id="pinterest" viewBox="0 0 32 32">
<path d="M15.763 0.64c-8.484 0-15.363 6.876-15.363 15.356 0 6.287 3.785 11.689 9.197 14.067-0.041-1.069-0.006-2.358 0.268-3.523l1.975-8.371s-0.494-0.98-0.494-2.427c0-2.276 1.318-3.976 2.963-3.976 1.399 0 2.071 1.050 2.071 2.304 0 1.404-0.899 3.502-1.357 5.449-0.384 1.632 0.815 2.956 2.427 2.956 2.908 0 4.87-3.738 4.87-8.166 0-3.365-2.271-5.882-6.392-5.882-4.658 0-7.565 3.476-7.565 7.356 0 1.338 0.397 2.284 1.015 3.009 0.282 0.337 0.321 0.474 0.219 0.858-0.076 0.282-0.241 0.96-0.315 1.234-0.102 0.39-0.419 0.527-0.768 0.384-2.148-0.877-3.149-3.222-3.149-5.869 0-4.36 3.683-9.591 10.981-9.591 5.864 0 9.725 4.244 9.725 8.796 0 6.026-3.354 10.523-8.293 10.523-1.659 0-3.217-0.897-3.75-1.912 0 0-0.892 3.538-1.084 4.224-0.323 1.185-0.96 2.364-1.544 3.29 1.304 0.399 2.803 0.63 4.355 0.631h0.001c8.484 0 15.363-6.876 15.363-15.356 0.001-8.481-6.871-15.364-15.355-15.364z"></path>
</symbol>
<symbol id="reserv" viewBox="0 0 31 32">
<path d="M25.918 12.879l-4.662 4.894-0.848 3.795c-0.022 0.126 0.031 0.18 0.166 0.154l3.743-1.004 4.659-4.894-3.058-2.944zM18.473 21.714c0.457-0.012 0.84 0.349 0.852 0.807s-0.349 0.839-0.807 0.852c-0.839 0.023-1.423 0.46-1.668 0.976-0.099 0.209-0.141 0.43-0.119 0.632 0.019 0.171 0.091 0.332 0.219 0.459 0.37 0.369 1.174 0.53 2.533 0.201 0.215-0.052 0.648-0.197 1.192-0.379 2.58-0.863 7.319-2.448 8.057-0.246 0.144 0.434-0.089 0.905-0.524 1.050s-0.905-0.089-1.049-0.523c-0.211-0.63-3.933 0.614-5.959 1.291-0.58 0.194-1.044 0.35-1.328 0.419-2.013 0.488-3.352 0.102-4.093-0.636-0.411-0.409-0.64-0.917-0.7-1.453-0.057-0.505 0.037-1.035 0.268-1.522 0.485-1.023 1.584-1.884 3.124-1.926zM6.47 14.11c-0.442 0-0.8-0.358-0.8-0.8s0.358-0.799 0.8-0.799h10.069c0.442 0 0.8 0.358 0.8 0.799s-0.358 0.8-0.8 0.8h-10.069zM6.47 19.275c-0.442 0-0.8-0.357-0.8-0.799s0.358-0.8 0.8-0.8h9.208c0.442 0 0.799 0.358 0.799 0.8s-0.357 0.799-0.799 0.799h-9.208zM6.47 24.442c-0.442 0-0.8-0.358-0.8-0.8s0.358-0.799 0.8-0.799h5.467c0.441 0 0.799 0.358 0.799 0.799s-0.358 0.8-0.799 0.8h-5.467zM15.369 2.295v2.701c0.062 0.817 0.347 1.459 0.847 1.887 0.519 0.443 1.294 0.692 2.32 0.71l2.328-0.003-5.495-5.295zM21.411 9.188l-2.887-0.003c-1.422-0.023-2.541-0.405-3.344-1.090-0.836-0.715-1.307-1.729-1.403-2.985l-0.007-0.11v-3.401h-9.796c-1.308 0-2.375 1.067-2.375 2.375v24.052c0 1.303 1.072 2.375 2.375 2.375h15.063c0.981 0 1.876-0.623 2.223-1.54 0.154-0.412 0.615-0.62 1.027-0.465s0.62 0.615 0.465 1.027c-0.582 1.536-2.069 2.578-3.715 2.578h-15.063c-2.182 0-3.974-1.794-3.974-3.975v-24.052c0-2.183 1.791-3.974 3.974-3.974h10.992c0.237 0 0.45 0.103 0.596 0.267l7.201 6.938c0.162 0.156 0.244 0.365 0.244 0.575l0.003 4.623c0 0.442-0.358 0.8-0.799 0.8s-0.8-0.358-0.8-0.8v-3.216zM28.962 10.719c-0.142-0.136-0.307-0.2-0.497-0.197s-0.351 0.077-0.485 0.217l-1.091 1.136 3.061 2.955 1.102-1.147c0.132-0.133 0.187-0.306 0.185-0.497-0.003-0.187-0.071-0.357-0.204-0.486l-2.071-1.981zM23.345 20.539l-2.296 0.615c-0.083 0.016-0.116-0.016-0.101-0.094l0.52-2.328 1.877 1.806z"></path>
</symbol>
<symbol id="signature" viewBox="6 7 19 18">
<path d="M9.2 15.626c0.077-0.013 0.134 0.013 0.173 0.077 0.045 0.058 0.054 0.122 0.029 0.192-0.019 0.064-0.067 0.102-0.144 0.115-0.198 0.026-0.419 0.061-0.662 0.106-0.333 1.139-0.854 2.189-1.565 3.149s-1.568 1.76-2.573 2.4c-0.205 0.134-0.368 0.237-0.49 0.307-0.122 0.077-0.307 0.182-0.557 0.317-0.243 0.141-0.461 0.246-0.653 0.317s-0.403 0.138-0.634 0.202c-0.224 0.070-0.438 0.099-0.643 0.086-0.205-0.006-0.39-0.051-0.557-0.134-0.25-0.122-0.419-0.291-0.509-0.509-0.090-0.211-0.102-0.438-0.038-0.682 0.058-0.243 0.141-0.474 0.25-0.691 0.102-0.218 0.227-0.419 0.374-0.605 0.877-1.146 1.949-2.102 3.216-2.87 1.267-0.774 2.624-1.312 4.070-1.613 0.147-0.55 0.25-1.101 0.307-1.651 0.058-0.557 0.061-1.123 0.010-1.699-0.045-0.576-0.147-1.117-0.307-1.622s-0.403-0.979-0.73-1.421c-0.32-0.442-0.707-0.806-1.162-1.094-0.346-0.218-0.72-0.381-1.123-0.49-0.397-0.115-0.797-0.173-1.2-0.173-0.397 0-0.794 0.070-1.19 0.211-0.406 0.141-0.757 0.343-1.061 0.599l0.005-0.004c-0.614 0.518-1.018 1.174-1.21 1.968s-0.131 1.555 0.182 2.285c0.032 0.077 0.026 0.144-0.019 0.202-0.045 0.051-0.102 0.077-0.173 0.077-0.070-0.006-0.122-0.045-0.154-0.115-0.198-0.454-0.307-0.922-0.326-1.402s0.038-0.928 0.173-1.344c0.134-0.422 0.339-0.819 0.614-1.19 0.275-0.378 0.592-0.694 0.95-0.95 0.365-0.256 0.778-0.448 1.238-0.576 0.461-0.134 0.934-0.179 1.421-0.134 0.621 0.058 1.184 0.221 1.69 0.49 0.512 0.269 0.938 0.608 1.277 1.018 0.339 0.403 0.624 0.867 0.854 1.392 0.237 0.525 0.403 1.069 0.499 1.632 0.102 0.557 0.15 1.126 0.144 1.709-0.013 0.73-0.109 1.462-0.288 2.198 0.192-0.032 0.355-0.058 0.49-0.077zM7.683 17.469c0.186-0.384 0.349-0.803 0.49-1.258-1.408 0.314-2.73 0.851-3.965 1.613-1.229 0.755-2.224 1.686-2.986 2.794-0.326 0.461-0.49 0.81-0.49 1.046 0 0.173 0.029 0.317 0.086 0.432 0.058 0.122 0.125 0.208 0.202 0.259 0.077 0.058 0.176 0.093 0.298 0.106 0.128 0.013 0.243 0.013 0.346 0s0.227-0.042 0.374-0.086c0.147-0.038 0.256-0.074 0.326-0.106 0.070-0.026 0.163-0.061 0.278-0.106 0.019-0.006 0.035-0.013 0.048-0.019 0.71-0.288 1.379-0.656 2.006-1.104 1.312-0.954 2.307-2.144 2.986-3.571zM10.541 15.952c0.301 0.077 0.512 0.262 0.634 0.557 0.122 0.288 0.128 0.579 0.019 0.874-0.096 0.282-0.24 0.541-0.432 0.778s-0.41 0.362-0.653 0.374c-0.25 0.013-0.432-0.074-0.547-0.259-0.109-0.186-0.141-0.4-0.096-0.643 0.090-0.499 0.349-0.998 0.778-1.498 0.013-0.013 0.029-0.026 0.048-0.038 0.045-0.122 0.128-0.17 0.25-0.144zM9.907 18.093c0.122 0.109 0.304 0.035 0.547-0.221 0.282-0.294 0.432-0.602 0.451-0.922 0.019-0.275-0.099-0.47-0.355-0.586-0.051 0.058-0.106 0.128-0.163 0.211-0.058 0.077-0.125 0.173-0.202 0.288s-0.144 0.23-0.202 0.346c-0.058 0.115-0.106 0.23-0.144 0.346-0.038 0.109-0.054 0.211-0.048 0.307 0.013 0.096 0.051 0.173 0.115 0.23zM14.455 16.058c0.064-0.045 0.131-0.051 0.202-0.019s0.109 0.080 0.115 0.144c0.013 0.064-0.010 0.122-0.067 0.173-0.467 0.326-0.893 0.643-1.277 0.95 0.173 0.109 0.314 0.218 0.422 0.326 0.115 0.102 0.214 0.221 0.298 0.355 0.090 0.134 0.122 0.282 0.096 0.442s-0.106 0.32-0.24 0.48-0.31 0.307-0.528 0.442c-0.218 0.141-0.448 0.246-0.691 0.317-0.237 0.077-0.464 0.074-0.682-0.010s-0.374-0.253-0.47-0.509c-0.147-0.403 0.067-0.867 0.643-1.392 0.141-0.122 0.301-0.259 0.48-0.413-0.013-0.006-0.096-0.051-0.25-0.134s-0.256-0.141-0.307-0.173c-0.051-0.032-0.134-0.086-0.25-0.163-0.109-0.077-0.195-0.15-0.259-0.221s-0.122-0.147-0.173-0.23c-0.198-0.346-0.090-0.733 0.326-1.162 0.358-0.371 0.771-0.611 1.238-0.72 0.512-0.122 0.835-0.010 0.97 0.336 0.019 0.058 0.035 0.122 0.048 0.192 0.006 0.077-0.019 0.138-0.077 0.182-0.058 0.038-0.122 0.048-0.192 0.029-0.070-0.026-0.109-0.077-0.115-0.154-0.051-0.352-0.374-0.349-0.97 0.010-0.262 0.154-0.461 0.298-0.595 0.432-0.115 0.115-0.198 0.214-0.25 0.298-0.045 0.083-0.058 0.176-0.038 0.278 0.026 0.096 0.096 0.198 0.211 0.307 0.058 0.051 0.125 0.106 0.202 0.163 0.077 0.051 0.141 0.093 0.192 0.125 0.058 0.032 0.138 0.080 0.24 0.144 0.109 0.058 0.179 0.096 0.211 0.115 0.019 0.006 0.045 0.022 0.077 0.048 0.038 0.019 0.067 0.032 0.086 0.038 0.422-0.339 0.88-0.682 1.373-1.027zM13.591 18.774c0.083-0.090 0.144-0.176 0.182-0.259s0.051-0.16 0.038-0.23c-0.013-0.077-0.038-0.147-0.077-0.211-0.032-0.064-0.086-0.128-0.163-0.192-0.070-0.064-0.141-0.118-0.211-0.163-0.070-0.051-0.154-0.106-0.25-0.163-0.173 0.147-0.336 0.285-0.49 0.413-0.026 0.026-0.070 0.064-0.134 0.115-0.058 0.051-0.106 0.093-0.144 0.125s-0.080 0.077-0.125 0.134c-0.038 0.051-0.070 0.102-0.096 0.154-0.141 0.314-0.128 0.538 0.038 0.672 0.173 0.134 0.403 0.163 0.691 0.086 0.237-0.058 0.483-0.218 0.739-0.48zM18.284 16.010c0.058-0.058 0.118-0.070 0.182-0.038 0.064 0.026 0.102 0.074 0.115 0.144 0.019 0.064 0.003 0.128-0.048 0.192-1.318 1.35-2.458 1.91-3.418 1.68-0.339-0.077-0.595-0.224-0.768-0.442-0.173-0.224-0.24-0.47-0.202-0.739 0.032-0.275 0.157-0.538 0.374-0.787 0.173-0.186 0.397-0.336 0.672-0.451 0.41-0.166 0.611-0.064 0.605 0.307v0.019c-0.006 0.25-0.157 0.486-0.451 0.71s-0.56 0.298-0.797 0.221c-0.026 0.288 0.096 0.502 0.365 0.643s0.563 0.182 0.883 0.125c0.454-0.083 0.877-0.259 1.267-0.528 0.397-0.275 0.803-0.627 1.219-1.056zM15.24 15.952c-0.090 0.006-0.189 0.061-0.298 0.163-0.102 0.102-0.192 0.214-0.269 0.336 0.134 0.064 0.298-0.013 0.49-0.23 0.128-0.147 0.163-0.237 0.106-0.269h-0.029zM20.426 16.47c0.077-0.013 0.134 0.010 0.173 0.067 0.045 0.058 0.054 0.122 0.029 0.192-0.019 0.070-0.067 0.112-0.144 0.125-0.659 0.102-1.299 0.307-1.92 0.614-0.019 0.768-0.026 1.549-0.019 2.342 0.109 0.090 0.186 0.157 0.23 0.202 0.538 0.499 0.883 1.315 1.037 2.448 0.058 0.429 0.042 0.854-0.048 1.277-0.134 0.659-0.422 0.806-0.864 0.442-0.128-0.109-0.24-0.259-0.336-0.451-0.090-0.186-0.16-0.371-0.211-0.557-0.045-0.186-0.083-0.413-0.115-0.682-0.026-0.269-0.042-0.493-0.048-0.672-0.006-0.173-0.013-0.394-0.019-0.662-0.006-0.262-0.010-0.435-0.010-0.518-0.006-0.141-0.013-0.33-0.019-0.566-0.653-0.493-1.421-0.698-2.304-0.614-0.096 0.006-0.16-0.035-0.192-0.125-0.038-0.083-0.022-0.157 0.048-0.221 0.877-0.832 1.706-1.459 2.486-1.882 0.038-0.813 0.096-1.629 0.173-2.448 0.006-0.083 0.016-0.234 0.029-0.451 0.019-0.218 0.035-0.416 0.048-0.595 0.013-0.186 0.035-0.403 0.067-0.653 0.032-0.256 0.070-0.483 0.115-0.682s0.109-0.397 0.192-0.595c0.083-0.205 0.176-0.368 0.278-0.49 0.109-0.122 0.243-0.211 0.403-0.269 0.16-0.064 0.336-0.077 0.528-0.038 0.077 0.019 0.128 0.064 0.154 0.134s0.019 0.134-0.019 0.192-0.096 0.077-0.173 0.058c-0.154-0.032-0.298 0.019-0.432 0.154-0.128 0.134-0.24 0.336-0.336 0.605-0.090 0.269-0.173 0.579-0.25 0.931-0.070 0.352-0.131 0.755-0.182 1.21-0.051 0.448-0.093 0.893-0.125 1.334-0.026 0.442-0.048 0.912-0.067 1.411 0.595-0.282 1.21-0.47 1.843-0.566zM19.476 23.402c0.051-0.57-0.003-1.114-0.163-1.632-0.16-0.512-0.413-0.954-0.758-1.325 0.013 0.474 0.026 0.803 0.038 0.989 0.058 0.749 0.138 1.322 0.24 1.718 0.083 0.314 0.195 0.534 0.336 0.662 0.147 0.134 0.243 0.048 0.288-0.259l0.019-0.154zM18.132 19.542c-0.006-0.634 0.003-1.251 0.029-1.853-0.589 0.333-1.203 0.79-1.843 1.373 0.678 0.019 1.283 0.179 1.814 0.48zM20.552 15.818c0.032-0.070 0.083-0.109 0.154-0.115s0.128 0.016 0.173 0.067c0.051 0.051 0.064 0.115 0.038 0.192-0.326 0.819-0.483 1.651-0.47 2.496 0 0.109-0.054 0.163-0.163 0.163-0.115 0-0.186-0.051-0.211-0.154-0.006-0.019-0.010-0.038-0.010-0.058-0.013-0.864 0.15-1.728 0.49-2.592zM21.195 14.714c0.045 0.109 0.013 0.195-0.096 0.259l-0.682 0.403c-0.045 0.026-0.093 0.029-0.144 0.010-0.051-0.026-0.086-0.061-0.106-0.106-0.045-0.102-0.013-0.189 0.096-0.259l0.682-0.403c0.045-0.026 0.093-0.026 0.144 0 0.051 0.019 0.086 0.051 0.106 0.096zM27.84 16.038c0.051-0.058 0.112-0.080 0.182-0.067 0.077 0.013 0.128 0.051 0.154 0.115 0.032 0.058 0.026 0.118-0.019 0.182-0.16 0.198-0.349 0.403-0.566 0.614s-0.474 0.422-0.768 0.634c-0.294 0.205-0.582 0.368-0.864 0.49-0.282 0.115-0.57 0.16-0.864 0.134-0.294-0.032-0.547-0.16-0.758-0.384-0.115-0.128-0.272-0.317-0.47-0.566-0.192-0.25-0.333-0.426-0.422-0.528-0.058-0.058-0.112-0.102-0.163-0.134-0.051-0.038-0.096-0.064-0.134-0.077s-0.080-0.010-0.125 0.010-0.083 0.038-0.115 0.058c-0.026 0.013-0.061 0.045-0.106 0.096s-0.077 0.093-0.096 0.125c-0.019 0.032-0.054 0.086-0.106 0.163-0.051 0.070-0.086 0.118-0.106 0.144-0.032 0.051-0.118 0.214-0.259 0.49-0.134 0.269-0.275 0.499-0.422 0.691-0.141 0.186-0.275 0.288-0.403 0.307-0.077 0.013-0.138-0.010-0.182-0.067-0.045-0.064-0.077-0.131-0.096-0.202-0.026-0.077-0.035-0.166-0.029-0.269 0.006-0.109 0.013-0.192 0.019-0.25s0.022-0.15 0.048-0.278c0.026-0.128 0.042-0.202 0.048-0.221 0.038-0.243 0.112-0.589 0.221-1.037 0.109-0.454 0.173-0.726 0.192-0.816 0.019-0.070 0.064-0.118 0.134-0.144s0.134-0.019 0.192 0.019 0.077 0.096 0.058 0.173c-0.032 0.141-0.086 0.374-0.163 0.701-0.077 0.32-0.134 0.566-0.173 0.739-0.077 0.378-0.125 0.64-0.144 0.787v0.086c0.051-0.096 0.115-0.198 0.192-0.307 0.083-0.109 0.17-0.224 0.259-0.346s0.154-0.214 0.192-0.278c0.019-0.026 0.045-0.064 0.077-0.115 0.038-0.051 0.070-0.096 0.096-0.134s0.054-0.080 0.086-0.125c0.038-0.051 0.074-0.096 0.106-0.134s0.067-0.077 0.106-0.115c0.038-0.038 0.077-0.074 0.115-0.106 0.045-0.032 0.086-0.058 0.125-0.077 0.102-0.026 0.192-0.038 0.269-0.038s0.16 0.029 0.25 0.086c0.090 0.058 0.166 0.118 0.23 0.182 0.070 0.064 0.144 0.144 0.221 0.24 0.083 0.096 0.15 0.186 0.202 0.269 0.058 0.077 0.115 0.16 0.173 0.25 0.064 0.090 0.118 0.16 0.163 0.211 0.224 0.275 0.426 0.438 0.605 0.49 0.179 0.045 0.435 0.006 0.768-0.115 0.781-0.288 1.472-0.806 2.074-1.555zM31.634 16.010c0.058-0.058 0.118-0.070 0.182-0.038 0.064 0.026 0.102 0.074 0.115 0.144 0.019 0.064 0.003 0.128-0.048 0.192-1.318 1.35-2.458 1.91-3.418 1.68-0.339-0.077-0.595-0.224-0.768-0.442-0.173-0.224-0.24-0.47-0.202-0.739 0.032-0.275 0.157-0.538 0.374-0.787 0.173-0.186 0.397-0.336 0.672-0.451 0.41-0.166 0.611-0.064 0.605 0.307v0.019c-0.006 0.25-0.157 0.486-0.451 0.71s-0.56 0.298-0.797 0.221c-0.026 0.288 0.096 0.502 0.365 0.643s0.563 0.182 0.883 0.125c0.454-0.083 0.877-0.259 1.267-0.528 0.397-0.275 0.803-0.627 1.219-1.056zM28.59 15.952c-0.090 0.006-0.189 0.061-0.298 0.163-0.102 0.102-0.192 0.214-0.269 0.336 0.134 0.064 0.298-0.013 0.49-0.23 0.128-0.147 0.163-0.237 0.106-0.269h-0.029z"></path>
</symbol>
<symbol id="twitter" viewBox="0 0 32 32">
<path d="M31.346 6.031c-1.169 0.507-2.405 0.842-3.67 0.992 1.318-0.781 2.311-1.991 2.799-3.434l0.013-0.045c-1.17 0.696-2.531 1.226-3.98 1.512l-0.081 0.013c-1.174-1.229-2.825-1.993-4.655-1.993-0.004 0-0.008 0-0.012 0h0.001c-3.532 0-6.39 2.817-6.39 6.289-0.002 0.482 0.053 0.965 0.165 1.434-5.308-0.256-9.988-2.747-13.152-6.545l-0.024-0.029c-0.545 0.904-0.868 1.995-0.869 3.162v0c0 2.18 1.137 4.108 2.855 5.237-1.070-0.026-2.067-0.313-2.938-0.8l0.032 0.016v0.078c0 3.051 2.207 5.588 5.127 6.166-0.549 0.148-1.115 0.222-1.684 0.222-0.404 0-0.806-0.039-1.201-0.117 0.812 2.498 3.175 4.315 5.974 4.368-2.164 1.681-4.919 2.695-7.91 2.695-0.548 0-1.088-0.034-1.618-0.1l0.063 0.006c2.754 1.783 6.121 2.843 9.735 2.843 0.018 0 0.035-0 0.053-0h-0.003c11.77 0 18.201-9.586 18.201-17.9 0-0.273-0.006-0.545-0.020-0.812 1.254-0.9 2.312-1.979 3.159-3.214l0.028-0.044z"></path>
</symbol>
<symbol id="quotes" viewBox="0 0 43 32">
<path d="M25.273 29.136c6.851-1.901 11.31-5.875 12.419-12.791 0.302-1.881-0.12-0.46-1.395 0.494-4.165 3.117-12.355 2.014-13.492-5.106-2.287-12.605 13.473-14.787 18.138-7.826 1.085 1.618 1.804 3.507 2.062 5.581 1.124 9.021-3.499 17.056-11.621 20.83-1.503 0.698-3.086 1.245-4.79 1.646-0.853 0.172-1.473-0.292-1.759-1.078-0.242-0.67-0.325-1.41 0.438-1.751zM2.694 29.136c6.851-1.901 11.311-5.875 12.419-12.791 0.302-1.881-0.12-0.46-1.395 0.494-4.165 3.117-12.355 2.014-13.491-5.106-2.288-12.605 13.473-14.787 18.137-7.826 1.085 1.618 1.804 3.507 2.062 5.581 1.124 9.021-3.499 17.056-11.621 20.83-1.503 0.698-3.085 1.245-4.79 1.646-0.853 0.172-1.473-0.292-1.759-1.078-0.242-0.67-0.325-1.41 0.438-1.751z"></path>
</symbol>
<symbol id="top-arrow" viewBox="0 0 32 32">
<path d="M16 32c4.418 0 8.419-1.791 11.314-4.686s4.686-6.896 4.686-11.314c0-4.418-1.791-8.419-4.686-11.314s-6.896-4.686-11.314-4.686c-4.418 0-8.419 1.791-11.314 4.686s-4.686 6.896-4.686 11.314c0 4.418 1.791 8.419 4.686 11.314s6.896 4.686 11.314 4.686zM9.185 17.756l6.815-6.814 6.815 6.814-2.532 2.532-4.282-4.282-4.282 4.282-2.533-2.533zM25.687 25.687c-2.479 2.479-5.904 4.012-9.687 4.012s-7.208-1.534-9.687-4.012-4.013-5.904-4.013-9.687c0-3.783 1.534-7.208 4.013-9.687s5.904-4.013 9.687-4.013c3.783 0 7.208 1.534 9.687 4.013s4.012 5.904 4.012 9.687c0 3.783-1.534 7.208-4.012 9.687z"></path>
</symbol>
</defs>
</svg>
